<mxfile host="app.diagrams.net" modified="2023-07-26T13:39:14.785Z" agent="Mozilla/5.0 (X11; Ubuntu; Linux x86_64; rv:109.0) Gecko/20100101 Firefox/115.0" etag="JT89XxiZ1Y172OSduU8B" version="21.6.5" type="github" pages="21">
  <diagram name="Page-1" id="KwKmOaSUNMyCv86T7x2U">
    <mxGraphModel dx="2230" dy="837" grid="1" gridSize="10" guides="1" tooltips="1" connect="1" arrows="1" fold="1" page="1" pageScale="1" pageWidth="850" pageHeight="1100" math="0" shadow="0">
      <root>
        <mxCell id="0" />
        <mxCell id="1" parent="0" />
        <mxCell id="xN6xK-kXH7-Yt-VnQuRD-1" style="edgeStyle=orthogonalEdgeStyle;rounded=0;html=1;exitX=1;exitY=0.5;startArrow=none;startFill=0;endArrow=classic;endFill=1;jettySize=auto;orthogonalLoop=1;strokeColor=#000000;strokeWidth=3;fontSize=22;fontColor=#000000;" parent="1" source="xN6xK-kXH7-Yt-VnQuRD-2" target="xN6xK-kXH7-Yt-VnQuRD-4" edge="1">
          <mxGeometry relative="1" as="geometry" />
        </mxCell>
        <mxCell id="xN6xK-kXH7-Yt-VnQuRD-2" value="Install Go" style="rounded=0;whiteSpace=wrap;html=1;shadow=0;labelBackgroundColor=none;strokeColor=#080808;strokeWidth=2;fillColor=#ffffff;fontSize=22;fontColor=#000000;align=center;" parent="1" vertex="1">
          <mxGeometry x="263" y="250" width="120" height="60" as="geometry" />
        </mxCell>
        <mxCell id="xN6xK-kXH7-Yt-VnQuRD-3" style="edgeStyle=orthogonalEdgeStyle;rounded=0;html=1;exitX=1;exitY=0.5;startArrow=none;startFill=0;endArrow=classic;endFill=1;jettySize=auto;orthogonalLoop=1;strokeColor=#000000;strokeWidth=3;fontSize=22;fontColor=#000000;" parent="1" source="xN6xK-kXH7-Yt-VnQuRD-4" target="xN6xK-kXH7-Yt-VnQuRD-5" edge="1">
          <mxGeometry relative="1" as="geometry" />
        </mxCell>
        <mxCell id="xN6xK-kXH7-Yt-VnQuRD-4" value="Install VSCode" style="rounded=0;whiteSpace=wrap;html=1;shadow=0;labelBackgroundColor=none;strokeColor=#080808;strokeWidth=2;fillColor=#ffffff;fontSize=22;fontColor=#000000;align=center;" parent="1" vertex="1">
          <mxGeometry x="429" y="250" width="120" height="60" as="geometry" />
        </mxCell>
        <mxCell id="xN6xK-kXH7-Yt-VnQuRD-5" value="Configure VSCode" style="rounded=0;whiteSpace=wrap;html=1;shadow=0;labelBackgroundColor=none;strokeColor=#080808;strokeWidth=2;fillColor=#ffffff;fontSize=22;fontColor=#000000;align=center;" parent="1" vertex="1">
          <mxGeometry x="604" y="250" width="130" height="60" as="geometry" />
        </mxCell>
        <mxCell id="xN6xK-kXH7-Yt-VnQuRD-6" value="Runtime to build and execute Go programs" style="text;html=1;strokeColor=none;fillColor=none;align=center;verticalAlign=middle;whiteSpace=wrap;rounded=0;shadow=0;labelBackgroundColor=none;fontSize=16;fontColor=#000000;" parent="1" vertex="1">
          <mxGeometry x="261" y="310" width="125" height="80" as="geometry" />
        </mxCell>
        <mxCell id="xN6xK-kXH7-Yt-VnQuRD-7" value="Code editor with awesome Go integration" style="text;html=1;strokeColor=none;fillColor=none;align=center;verticalAlign=middle;whiteSpace=wrap;rounded=0;shadow=0;labelBackgroundColor=none;fontSize=16;fontColor=#000000;" parent="1" vertex="1">
          <mxGeometry x="427" y="310" width="125" height="80" as="geometry" />
        </mxCell>
        <mxCell id="xN6xK-kXH7-Yt-VnQuRD-8" value="Install Golang extension" style="text;html=1;strokeColor=none;fillColor=none;align=center;verticalAlign=middle;whiteSpace=wrap;rounded=0;shadow=0;labelBackgroundColor=none;fontSize=16;fontColor=#000000;" parent="1" vertex="1">
          <mxGeometry x="607" y="320" width="125" height="40" as="geometry" />
        </mxCell>
        <mxCell id="xN6xK-kXH7-Yt-VnQuRD-9" value="https://golang.org/dl/" style="text;html=1;strokeColor=none;fillColor=none;align=center;verticalAlign=middle;whiteSpace=wrap;rounded=0;shadow=0;labelBackgroundColor=none;fontSize=12;fontColor=#000000;" parent="1" vertex="1">
          <mxGeometry x="261" y="220" width="125" height="30" as="geometry" />
        </mxCell>
        <mxCell id="xN6xK-kXH7-Yt-VnQuRD-10" value="https://code.visualstudio.com/" style="text;html=1;strokeColor=none;fillColor=none;align=center;verticalAlign=middle;whiteSpace=wrap;rounded=0;shadow=0;labelBackgroundColor=none;fontSize=12;fontColor=#000000;" parent="1" vertex="1">
          <mxGeometry x="427" y="220" width="125" height="30" as="geometry" />
        </mxCell>
        <mxCell id="xN6xK-kXH7-Yt-VnQuRD-11" style="edgeStyle=orthogonalEdgeStyle;rounded=0;html=1;exitX=1;exitY=0.5;startArrow=none;startFill=0;endArrow=classic;endFill=1;jettySize=auto;orthogonalLoop=1;strokeColor=#000000;strokeWidth=3;fontSize=22;fontColor=#000000;" parent="1" target="xN6xK-kXH7-Yt-VnQuRD-12" edge="1">
          <mxGeometry relative="1" as="geometry">
            <mxPoint x="734.3333333333333" y="280.33333333333337" as="sourcePoint" />
          </mxGeometry>
        </mxCell>
        <mxCell id="xN6xK-kXH7-Yt-VnQuRD-12" value="Write code!" style="rounded=0;whiteSpace=wrap;html=1;shadow=0;labelBackgroundColor=none;strokeColor=#080808;strokeWidth=2;fillColor=#ffffff;fontSize=22;fontColor=#000000;align=center;" parent="1" vertex="1">
          <mxGeometry x="789" y="250" width="130" height="60" as="geometry" />
        </mxCell>
        <mxCell id="xN6xK-kXH7-Yt-VnQuRD-13" value="The fun part!" style="text;html=1;strokeColor=none;fillColor=none;align=center;verticalAlign=middle;whiteSpace=wrap;rounded=0;shadow=0;labelBackgroundColor=none;fontSize=16;fontColor=#000000;" parent="1" vertex="1">
          <mxGeometry x="792" y="320" width="125" height="20" as="geometry" />
        </mxCell>
        <mxCell id="PredbNpVPD6zMxw3Z9yp-4" value="&lt;font style=&quot;font-size: 22px;&quot;&gt;newDeck&lt;/font&gt;" style="rounded=1;whiteSpace=wrap;html=1;" parent="1" vertex="1">
          <mxGeometry x="200" y="450" width="110" height="60" as="geometry" />
        </mxCell>
        <mxCell id="PredbNpVPD6zMxw3Z9yp-6" value="&lt;font style=&quot;font-size: 20px;&quot;&gt;print&lt;/font&gt;" style="rounded=1;whiteSpace=wrap;html=1;" parent="1" vertex="1">
          <mxGeometry x="200" y="520" width="120" height="60" as="geometry" />
        </mxCell>
        <mxCell id="PredbNpVPD6zMxw3Z9yp-7" value="&lt;font style=&quot;font-size: 20px;&quot;&gt;shuffle&lt;/font&gt;" style="rounded=1;whiteSpace=wrap;html=1;" parent="1" vertex="1">
          <mxGeometry x="200" y="600" width="120" height="60" as="geometry" />
        </mxCell>
        <mxCell id="PredbNpVPD6zMxw3Z9yp-8" value="&lt;font style=&quot;font-size: 21px;&quot;&gt;deal&lt;/font&gt;" style="rounded=1;whiteSpace=wrap;html=1;" parent="1" vertex="1">
          <mxGeometry x="205" y="680" width="115" height="60" as="geometry" />
        </mxCell>
        <mxCell id="PredbNpVPD6zMxw3Z9yp-9" value="&lt;font style=&quot;font-size: 18px;&quot;&gt;newDeckFromFile&lt;/font&gt;" style="rounded=1;whiteSpace=wrap;html=1;" parent="1" vertex="1">
          <mxGeometry x="190" y="830" width="150" height="50" as="geometry" />
        </mxCell>
        <mxCell id="PredbNpVPD6zMxw3Z9yp-10" value="&lt;font style=&quot;font-size: 20px;&quot;&gt;saveToFile&lt;/font&gt;" style="rounded=1;whiteSpace=wrap;html=1;" parent="1" vertex="1">
          <mxGeometry x="205" y="750" width="115" height="60" as="geometry" />
        </mxCell>
        <mxCell id="PredbNpVPD6zMxw3Z9yp-11" value="&lt;font style=&quot;font-size: 22px;&quot;&gt;CARDS PROJECT&lt;/font&gt;" style="text;html=1;align=center;verticalAlign=middle;resizable=0;points=[];autosize=1;strokeColor=none;fillColor=none;" parent="1" vertex="1">
          <mxGeometry x="160" y="405" width="210" height="40" as="geometry" />
        </mxCell>
        <mxCell id="PredbNpVPD6zMxw3Z9yp-13" value="" style="endArrow=classic;html=1;rounded=0;exitX=1.036;exitY=0.65;exitDx=0;exitDy=0;exitPerimeter=0;" parent="1" source="PredbNpVPD6zMxw3Z9yp-4" edge="1">
          <mxGeometry width="50" height="50" relative="1" as="geometry">
            <mxPoint x="500" y="620" as="sourcePoint" />
            <mxPoint x="410" y="489" as="targetPoint" />
            <Array as="points" />
          </mxGeometry>
        </mxCell>
        <mxCell id="PredbNpVPD6zMxw3Z9yp-14" value="&lt;font style=&quot;font-size: 17px;&quot;&gt;Create a list of playing cards.Essentially an array of srings&lt;/font&gt;" style="text;html=1;align=center;verticalAlign=middle;resizable=0;points=[];autosize=1;strokeColor=none;fillColor=none;" parent="1" vertex="1">
          <mxGeometry x="427" y="480" width="460" height="30" as="geometry" />
        </mxCell>
        <mxCell id="PredbNpVPD6zMxw3Z9yp-15" value="" style="endArrow=classic;html=1;rounded=0;" parent="1" edge="1">
          <mxGeometry width="50" height="50" relative="1" as="geometry">
            <mxPoint x="320" y="560" as="sourcePoint" />
            <mxPoint x="420" y="560" as="targetPoint" />
          </mxGeometry>
        </mxCell>
        <mxCell id="PredbNpVPD6zMxw3Z9yp-16" value="&lt;font style=&quot;font-size: 17px;&quot;&gt;Log out the contents of a deck of cards&lt;/font&gt;" style="text;html=1;align=center;verticalAlign=middle;resizable=0;points=[];autosize=1;strokeColor=none;fillColor=none;" parent="1" vertex="1">
          <mxGeometry x="450" y="550" width="320" height="30" as="geometry" />
        </mxCell>
        <mxCell id="PredbNpVPD6zMxw3Z9yp-18" value="" style="endArrow=classic;html=1;rounded=0;" parent="1" edge="1">
          <mxGeometry width="50" height="50" relative="1" as="geometry">
            <mxPoint x="320" y="640" as="sourcePoint" />
            <mxPoint x="410" y="640" as="targetPoint" />
          </mxGeometry>
        </mxCell>
        <mxCell id="PredbNpVPD6zMxw3Z9yp-19" value="&lt;font style=&quot;font-size: 17px;&quot;&gt;Shuffles al the cards in a deck.&lt;/font&gt;" style="text;html=1;align=center;verticalAlign=middle;resizable=0;points=[];autosize=1;strokeColor=none;fillColor=none;" parent="1" vertex="1">
          <mxGeometry x="470" y="630" width="250" height="30" as="geometry" />
        </mxCell>
        <mxCell id="PredbNpVPD6zMxw3Z9yp-20" value="" style="endArrow=classic;html=1;rounded=0;" parent="1" edge="1">
          <mxGeometry width="50" height="50" relative="1" as="geometry">
            <mxPoint x="320" y="720" as="sourcePoint" />
            <mxPoint x="410" y="720" as="targetPoint" />
          </mxGeometry>
        </mxCell>
        <mxCell id="PredbNpVPD6zMxw3Z9yp-21" value="&lt;font style=&quot;font-size: 18px;&quot;&gt;Create a &#39;hand&#39; of cards&lt;/font&gt;" style="text;html=1;align=center;verticalAlign=middle;resizable=0;points=[];autosize=1;strokeColor=none;fillColor=none;" parent="1" vertex="1">
          <mxGeometry x="470" y="700" width="210" height="40" as="geometry" />
        </mxCell>
        <mxCell id="PredbNpVPD6zMxw3Z9yp-22" value="" style="endArrow=classic;html=1;rounded=0;exitX=1;exitY=0.5;exitDx=0;exitDy=0;" parent="1" source="PredbNpVPD6zMxw3Z9yp-10" edge="1">
          <mxGeometry width="50" height="50" relative="1" as="geometry">
            <mxPoint x="320" y="790" as="sourcePoint" />
            <mxPoint x="410" y="780" as="targetPoint" />
          </mxGeometry>
        </mxCell>
        <mxCell id="PredbNpVPD6zMxw3Z9yp-23" value="&lt;font style=&quot;font-size: 17px;&quot;&gt;Save a list of cards in a file on the local machine&lt;/font&gt;" style="text;html=1;align=center;verticalAlign=middle;resizable=0;points=[];autosize=1;strokeColor=none;fillColor=none;" parent="1" vertex="1">
          <mxGeometry x="424" y="765" width="390" height="30" as="geometry" />
        </mxCell>
        <mxCell id="PredbNpVPD6zMxw3Z9yp-24" value="" style="endArrow=classic;html=1;rounded=0;" parent="1" edge="1">
          <mxGeometry width="50" height="50" relative="1" as="geometry">
            <mxPoint x="340" y="860" as="sourcePoint" />
            <mxPoint x="410" y="860" as="targetPoint" />
          </mxGeometry>
        </mxCell>
        <mxCell id="PredbNpVPD6zMxw3Z9yp-25" value="&lt;font style=&quot;font-size: 17px;&quot;&gt;Load a list of cards from the local machine&lt;/font&gt;" style="text;html=1;align=center;verticalAlign=middle;resizable=0;points=[];autosize=1;strokeColor=none;fillColor=none;" parent="1" vertex="1">
          <mxGeometry x="440" y="840" width="340" height="30" as="geometry" />
        </mxCell>
        <mxCell id="PredbNpVPD6zMxw3Z9yp-26" value="&lt;div style=&quot;font-size: 21px;&quot;&gt;&lt;font style=&quot;font-size: 21px;&quot;&gt;for index,card := range cards{&lt;/font&gt;&lt;/div&gt;&lt;div style=&quot;font-size: 21px;&quot;&gt;&lt;font style=&quot;font-size: 21px;&quot;&gt;fmt.Println(card)&lt;/font&gt;&lt;/div&gt;&lt;div style=&quot;font-size: 21px;&quot;&gt;&lt;font style=&quot;font-size: 21px;&quot;&gt;}&lt;font style=&quot;font-size: 21px;&quot;&gt;&lt;br&gt;&lt;/font&gt;&lt;/font&gt;&lt;/div&gt;" style="text;html=1;align=center;verticalAlign=middle;resizable=0;points=[];autosize=1;strokeColor=none;fillColor=none;" parent="1" vertex="1">
          <mxGeometry x="320" y="1050" width="300" height="90" as="geometry" />
        </mxCell>
        <mxCell id="PredbNpVPD6zMxw3Z9yp-28" value="" style="endArrow=classic;html=1;rounded=0;entryX=0.486;entryY=1.1;entryDx=0;entryDy=0;entryPerimeter=0;" parent="1" target="PredbNpVPD6zMxw3Z9yp-29" edge="1">
          <mxGeometry width="50" height="50" relative="1" as="geometry">
            <mxPoint x="380" y="1060" as="sourcePoint" />
            <mxPoint x="380" y="1000" as="targetPoint" />
          </mxGeometry>
        </mxCell>
        <mxCell id="PredbNpVPD6zMxw3Z9yp-29" value="&lt;div style=&quot;font-size: 18px;&quot;&gt;&lt;font style=&quot;font-size: 18px;&quot;&gt;index of this element&amp;nbsp;&lt;/font&gt;&lt;/div&gt;&lt;div style=&quot;font-size: 18px;&quot;&gt;&lt;font style=&quot;font-size: 18px;&quot;&gt;in the array&lt;/font&gt;&lt;/div&gt;" style="text;html=1;align=center;verticalAlign=middle;resizable=0;points=[];autosize=1;strokeColor=none;fillColor=none;" parent="1" vertex="1">
          <mxGeometry x="221" y="950" width="190" height="60" as="geometry" />
        </mxCell>
        <mxCell id="PredbNpVPD6zMxw3Z9yp-31" value="" style="endArrow=classic;html=1;rounded=0;" parent="1" target="PredbNpVPD6zMxw3Z9yp-32" edge="1">
          <mxGeometry width="50" height="50" relative="1" as="geometry">
            <mxPoint x="440" y="1060" as="sourcePoint" />
            <mxPoint x="440" y="1020" as="targetPoint" />
          </mxGeometry>
        </mxCell>
        <mxCell id="PredbNpVPD6zMxw3Z9yp-32" value="&lt;div style=&quot;font-size: 16px;&quot;&gt;&lt;font style=&quot;font-size: 16px;&quot;&gt;Current card we&#39;re&lt;/font&gt;&lt;/div&gt;&lt;div style=&quot;font-size: 16px;&quot;&gt;&lt;font style=&quot;font-size: 16px;&quot;&gt;&amp;nbsp;iterating over&lt;/font&gt;&lt;/div&gt;" style="text;html=1;align=center;verticalAlign=middle;resizable=0;points=[];autosize=1;strokeColor=none;fillColor=none;" parent="1" vertex="1">
          <mxGeometry x="414" y="935" width="150" height="50" as="geometry" />
        </mxCell>
        <mxCell id="PredbNpVPD6zMxw3Z9yp-33" value="&lt;div style=&quot;font-size: 17px;&quot;&gt;&lt;font style=&quot;font-size: 17px;&quot;&gt;Take the slice of &#39;cards&#39;&lt;/font&gt;&lt;/div&gt;&lt;div style=&quot;font-size: 17px;&quot;&gt;&lt;font style=&quot;font-size: 17px;&quot;&gt;and loop over it&lt;font style=&quot;font-size: 17px;&quot;&gt;&lt;br&gt;&lt;/font&gt;&lt;/font&gt;&lt;/div&gt;" style="text;html=1;align=center;verticalAlign=middle;resizable=0;points=[];autosize=1;strokeColor=none;fillColor=none;" parent="1" vertex="1">
          <mxGeometry x="535" y="968" width="200" height="50" as="geometry" />
        </mxCell>
        <mxCell id="PredbNpVPD6zMxw3Z9yp-35" value="" style="endArrow=classic;html=1;rounded=0;entryX=0.407;entryY=0.95;entryDx=0;entryDy=0;entryPerimeter=0;" parent="1" target="PredbNpVPD6zMxw3Z9yp-33" edge="1">
          <mxGeometry width="50" height="50" relative="1" as="geometry">
            <mxPoint x="550" y="1060" as="sourcePoint" />
            <mxPoint x="600" y="1010" as="targetPoint" />
          </mxGeometry>
        </mxCell>
        <mxCell id="PredbNpVPD6zMxw3Z9yp-36" value="&lt;div style=&quot;font-size: 17px;&quot;&gt;&lt;font style=&quot;font-size: 17px;&quot;&gt;Run this one time for each card&lt;/font&gt;&lt;/div&gt;&lt;div style=&quot;font-size: 17px;&quot;&gt;&lt;font style=&quot;font-size: 17px;&quot;&gt;&amp;nbsp;in the slice&lt;/font&gt;&lt;/div&gt;" style="text;html=1;align=center;verticalAlign=middle;resizable=0;points=[];autosize=1;strokeColor=none;fillColor=none;" parent="1" vertex="1">
          <mxGeometry x="255" y="1155" width="260" height="50" as="geometry" />
        </mxCell>
        <mxCell id="PredbNpVPD6zMxw3Z9yp-38" value="" style="endArrow=classic;html=1;rounded=0;exitX=0.5;exitY=0.175;exitDx=0;exitDy=0;exitPerimeter=0;" parent="1" source="PredbNpVPD6zMxw3Z9yp-36" edge="1">
          <mxGeometry width="50" height="50" relative="1" as="geometry">
            <mxPoint x="380" y="1150" as="sourcePoint" />
            <mxPoint x="410" y="1120" as="targetPoint" />
          </mxGeometry>
        </mxCell>
        <mxCell id="nNU1Q9rzHe1Agexzaodl-1" value="&lt;font style=&quot;font-size: 24px;&quot;&gt;Cards - OO Approach&lt;/font&gt;" style="rounded=0;whiteSpace=wrap;html=1;fillColor=#d5e8d4;strokeColor=#82b366;" parent="1" vertex="1">
          <mxGeometry x="254" y="1280" width="310" height="40" as="geometry" />
        </mxCell>
        <mxCell id="nNU1Q9rzHe1Agexzaodl-5" style="edgeStyle=orthogonalEdgeStyle;rounded=0;orthogonalLoop=1;jettySize=auto;html=1;" parent="1" source="nNU1Q9rzHe1Agexzaodl-3" edge="1">
          <mxGeometry relative="1" as="geometry">
            <mxPoint x="470" y="1490" as="targetPoint" />
          </mxGeometry>
        </mxCell>
        <mxCell id="nNU1Q9rzHe1Agexzaodl-3" value="&lt;font style=&quot;font-size: 20px;&quot;&gt;Deck Class&lt;/font&gt;" style="rounded=0;whiteSpace=wrap;html=1;" parent="1" vertex="1">
          <mxGeometry x="101" y="1460" width="149" height="60" as="geometry" />
        </mxCell>
        <mxCell id="nNU1Q9rzHe1Agexzaodl-4" value="&lt;div&gt;&lt;br&gt;&lt;/div&gt;&lt;div&gt;&lt;br&gt;&lt;/div&gt;&lt;div&gt;&lt;br&gt;&lt;/div&gt;&lt;div&gt;&lt;br&gt;&lt;/div&gt;&lt;div&gt;&lt;br&gt;&lt;/div&gt;&lt;div&gt;&lt;br&gt;&lt;/div&gt;" style="whiteSpace=wrap;html=1;aspect=fixed;fillColor=#dae8fc;strokeColor=#6c8ebf;" parent="1" vertex="1">
          <mxGeometry x="480" y="1370" width="300" height="300" as="geometry" />
        </mxCell>
        <mxCell id="nNU1Q9rzHe1Agexzaodl-7" value="&lt;div&gt;&lt;font style=&quot;font-size: 20px;&quot;&gt;shuffle&lt;/font&gt;&lt;/div&gt;&lt;div&gt;function&lt;br&gt;&lt;/div&gt;" style="rounded=0;whiteSpace=wrap;html=1;" parent="1" vertex="1">
          <mxGeometry x="660" y="1580" width="110" height="40" as="geometry" />
        </mxCell>
        <mxCell id="nNU1Q9rzHe1Agexzaodl-8" value="&lt;div style=&quot;font-size: 20px;&quot;&gt;saveToFile&lt;/div&gt;&lt;div&gt;function&lt;br&gt;&lt;/div&gt;" style="rounded=0;whiteSpace=wrap;html=1;" parent="1" vertex="1">
          <mxGeometry x="498.5" y="1580" width="123" height="50" as="geometry" />
        </mxCell>
        <mxCell id="nNU1Q9rzHe1Agexzaodl-9" value="&lt;div&gt;&lt;font style=&quot;font-size: 18px;&quot;&gt;print&lt;/font&gt;&lt;/div&gt;&lt;div&gt;function&lt;br&gt;&lt;/div&gt;" style="rounded=0;whiteSpace=wrap;html=1;" parent="1" vertex="1">
          <mxGeometry x="507" y="1510" width="100" height="50" as="geometry" />
        </mxCell>
        <mxCell id="nNU1Q9rzHe1Agexzaodl-10" value="&lt;div&gt;&lt;font style=&quot;font-size: 21px;&quot;&gt;cards&lt;/font&gt;&lt;/div&gt;&lt;div&gt;[string]&lt;br&gt;&lt;/div&gt;" style="rounded=0;whiteSpace=wrap;html=1;" parent="1" vertex="1">
          <mxGeometry x="582.5" y="1400" width="95" height="40" as="geometry" />
        </mxCell>
        <mxCell id="nNU1Q9rzHe1Agexzaodl-11" value="" style="endArrow=none;html=1;rounded=0;exitX=-0.013;exitY=0.373;exitDx=0;exitDy=0;exitPerimeter=0;" parent="1" source="nNU1Q9rzHe1Agexzaodl-4" edge="1">
          <mxGeometry width="50" height="50" relative="1" as="geometry">
            <mxPoint x="490" y="1490" as="sourcePoint" />
            <mxPoint x="780" y="1480" as="targetPoint" />
            <Array as="points" />
          </mxGeometry>
        </mxCell>
        <mxCell id="nNU1Q9rzHe1Agexzaodl-13" value="&lt;font style=&quot;font-size: 22px;&quot;&gt;Deck Instance&lt;/font&gt;" style="text;html=1;align=center;verticalAlign=middle;resizable=0;points=[];autosize=1;strokeColor=none;fillColor=none;" parent="1" vertex="1">
          <mxGeometry x="539" y="1330" width="160" height="40" as="geometry" />
        </mxCell>
        <mxCell id="nNU1Q9rzHe1Agexzaodl-14" value="&lt;div style=&quot;font-size: 24px;&quot;&gt;&lt;font style=&quot;font-size: 24px;&quot;&gt;Base Go Types&lt;/font&gt;&lt;/div&gt;&lt;div style=&quot;font-size: 24px;&quot;&gt;&lt;font style=&quot;font-size: 24px;&quot;&gt;&lt;br&gt;&lt;/font&gt;&lt;/div&gt;" style="text;html=1;align=center;verticalAlign=middle;resizable=0;points=[];autosize=1;strokeColor=none;fillColor=none;" parent="1" vertex="1">
          <mxGeometry x="263" y="1740" width="190" height="70" as="geometry" />
        </mxCell>
        <mxCell id="nNU1Q9rzHe1Agexzaodl-23" style="edgeStyle=orthogonalEdgeStyle;rounded=0;orthogonalLoop=1;jettySize=auto;html=1;exitX=0.5;exitY=1;exitDx=0;exitDy=0;entryX=0.5;entryY=0;entryDx=0;entryDy=0;" parent="1" source="nNU1Q9rzHe1Agexzaodl-15" target="nNU1Q9rzHe1Agexzaodl-21" edge="1">
          <mxGeometry relative="1" as="geometry" />
        </mxCell>
        <mxCell id="nNU1Q9rzHe1Agexzaodl-15" value="" style="rounded=0;whiteSpace=wrap;html=1;" parent="1" vertex="1">
          <mxGeometry x="170" y="1810" width="404" height="140" as="geometry" />
        </mxCell>
        <mxCell id="nNU1Q9rzHe1Agexzaodl-16" value="&lt;font style=&quot;font-size: 19px;&quot;&gt;map&lt;/font&gt;" style="rounded=0;whiteSpace=wrap;html=1;" parent="1" vertex="1">
          <mxGeometry x="383" y="1890" width="107" height="50" as="geometry" />
        </mxCell>
        <mxCell id="nNU1Q9rzHe1Agexzaodl-17" value="&lt;font style=&quot;font-size: 19px;&quot;&gt;array&lt;/font&gt;" style="rounded=0;whiteSpace=wrap;html=1;" parent="1" vertex="1">
          <mxGeometry x="189.5" y="1890" width="117.5" height="50" as="geometry" />
        </mxCell>
        <mxCell id="nNU1Q9rzHe1Agexzaodl-18" value="&lt;font style=&quot;font-size: 20px;&quot;&gt;float&lt;/font&gt;" style="rounded=0;whiteSpace=wrap;html=1;" parent="1" vertex="1">
          <mxGeometry x="444" y="1820" width="108" height="50" as="geometry" />
        </mxCell>
        <mxCell id="nNU1Q9rzHe1Agexzaodl-19" value="&lt;font style=&quot;font-size: 18px;&quot;&gt;integer&lt;/font&gt;" style="rounded=0;whiteSpace=wrap;html=1;" parent="1" vertex="1">
          <mxGeometry x="307" y="1820" width="113" height="50" as="geometry" />
        </mxCell>
        <mxCell id="nNU1Q9rzHe1Agexzaodl-20" value="&lt;font style=&quot;font-size: 18px;&quot;&gt;string&lt;/font&gt;" style="rounded=0;whiteSpace=wrap;html=1;" parent="1" vertex="1">
          <mxGeometry x="180" y="1820" width="100" height="50" as="geometry" />
        </mxCell>
        <mxCell id="nNU1Q9rzHe1Agexzaodl-24" style="edgeStyle=orthogonalEdgeStyle;rounded=0;orthogonalLoop=1;jettySize=auto;html=1;exitX=0.5;exitY=1;exitDx=0;exitDy=0;" parent="1" source="nNU1Q9rzHe1Agexzaodl-21" edge="1">
          <mxGeometry relative="1" as="geometry">
            <mxPoint x="372" y="2200" as="targetPoint" />
          </mxGeometry>
        </mxCell>
        <mxCell id="nNU1Q9rzHe1Agexzaodl-21" value="&lt;font style=&quot;font-size: 18px;&quot;&gt;type deck []string&lt;/font&gt;" style="rounded=0;whiteSpace=wrap;html=1;" parent="1" vertex="1">
          <mxGeometry x="277" y="2070" width="190" height="80" as="geometry" />
        </mxCell>
        <mxCell id="nNU1Q9rzHe1Agexzaodl-22" value="&lt;div style=&quot;font-size: 17px;&quot;&gt;&lt;font style=&quot;font-size: 17px;&quot;&gt;Functions with &#39;deck&#39; as a&lt;/font&gt;&lt;/div&gt;&lt;div style=&quot;font-size: 17px;&quot;&gt;&lt;font style=&quot;font-size: 17px;&quot;&gt;&#39;receiver&#39;&lt;font style=&quot;font-size: 17px;&quot;&gt;&lt;br&gt;&lt;/font&gt;&lt;/font&gt;&lt;/div&gt;" style="rounded=0;whiteSpace=wrap;html=1;" parent="1" vertex="1">
          <mxGeometry x="270" y="2200" width="210" height="90" as="geometry" />
        </mxCell>
        <mxCell id="EE4fRK-45uCwvJdGaHX5-1" value="&lt;div style=&quot;font-size: 16px;&quot;&gt;&lt;font style=&quot;font-size: 16px;&quot;&gt;we want to &quot;&quot;extend&quot; a base type and&lt;/font&gt;&lt;/div&gt;&lt;div style=&quot;font-size: 16px;&quot;&gt;&lt;font style=&quot;font-size: 16px;&quot;&gt;add some extra functionality to it&lt;font style=&quot;font-size: 16px;&quot;&gt;&lt;br&gt;&lt;/font&gt;&lt;/font&gt;&lt;/div&gt;" style="text;html=1;align=center;verticalAlign=middle;resizable=0;points=[];autosize=1;strokeColor=none;fillColor=none;" parent="1" vertex="1">
          <mxGeometry x="387.5" y="1975" width="290" height="50" as="geometry" />
        </mxCell>
        <mxCell id="EE4fRK-45uCwvJdGaHX5-2" value="&lt;div style=&quot;font-size: 16px;&quot;&gt;&lt;font style=&quot;font-size: 16px;&quot;&gt;Tell Go we want to create an array of strings and&lt;/font&gt;&lt;/div&gt;&lt;div style=&quot;font-size: 16px;&quot;&gt;&lt;font style=&quot;font-size: 16px;&quot;&gt;add a bunch of functions spesifically made&lt;/font&gt;&lt;/div&gt;&lt;div style=&quot;font-size: 16px;&quot;&gt;&lt;font style=&quot;font-size: 16px;&quot;&gt;to work with it&lt;font style=&quot;font-size: 16px;&quot;&gt;&lt;br&gt;&lt;/font&gt;&lt;/font&gt;&lt;/div&gt;" style="text;html=1;align=center;verticalAlign=middle;resizable=0;points=[];autosize=1;strokeColor=none;fillColor=none;" parent="1" vertex="1">
          <mxGeometry x="472" y="2070" width="370" height="70" as="geometry" />
        </mxCell>
        <mxCell id="EE4fRK-45uCwvJdGaHX5-3" value="&lt;div style=&quot;font-size: 16px;&quot;&gt;&lt;font style=&quot;font-size: 16px;&quot;&gt;A function with a receiver is like&lt;/font&gt;&lt;/div&gt;&lt;div style=&quot;font-size: 16px;&quot;&gt;&lt;font style=&quot;font-size: 16px;&quot;&gt;a &quot;method&quot; -a function that belongs to&lt;/font&gt;&lt;/div&gt;&lt;div style=&quot;font-size: 16px;&quot;&gt;&lt;font style=&quot;font-size: 16px;&quot;&gt;an &quot;instance&quot;&lt;font style=&quot;font-size: 16px;&quot;&gt;&lt;br&gt;&lt;/font&gt;&lt;/font&gt;&lt;/div&gt;" style="text;html=1;align=center;verticalAlign=middle;resizable=0;points=[];autosize=1;strokeColor=none;fillColor=none;" parent="1" vertex="1">
          <mxGeometry x="500" y="2215" width="290" height="70" as="geometry" />
        </mxCell>
        <mxCell id="EE4fRK-45uCwvJdGaHX5-4" value="&lt;font style=&quot;font-size: 29px;&quot;&gt;func (d deck) print() {&lt;/font&gt;" style="rounded=0;whiteSpace=wrap;html=1;fillColor=#dae8fc;strokeColor=#6c8ebf;" parent="1" vertex="1">
          <mxGeometry x="230" y="2390" width="310" height="80" as="geometry" />
        </mxCell>
        <mxCell id="EE4fRK-45uCwvJdGaHX5-5" value="&lt;div style=&quot;font-size: 19px;&quot;&gt;&lt;font style=&quot;font-size: 19px;&quot;&gt;Any variable of type &quot;deck&quot;&#39;&lt;/font&gt;&lt;/div&gt;&lt;div style=&quot;font-size: 19px;&quot;&gt;&lt;font style=&quot;font-size: 19px;&quot;&gt;now gets acces to the&lt;/font&gt;&lt;/div&gt;&lt;div style=&quot;font-size: 19px;&quot;&gt;&lt;font style=&quot;font-size: 19px;&quot;&gt;&quot;print&quot; method&lt;font style=&quot;font-size: 19px;&quot;&gt;&lt;br&gt;&lt;/font&gt;&lt;/font&gt;&lt;/div&gt;" style="text;html=1;align=center;verticalAlign=middle;resizable=0;points=[];autosize=1;strokeColor=none;fillColor=none;" parent="1" vertex="1">
          <mxGeometry x="260" y="2500" width="250" height="80" as="geometry" />
        </mxCell>
        <mxCell id="s95GOLCqN3M0pa28icrX-1" value="&lt;b&gt;&lt;font style=&quot;font-size: 21px;&quot;&gt;Whats byte slice?&lt;/font&gt;&lt;/b&gt;" style="text;html=1;align=center;verticalAlign=middle;resizable=0;points=[];autosize=1;strokeColor=none;fillColor=none;" parent="1" vertex="1">
          <mxGeometry x="-5" y="2620" width="200" height="40" as="geometry" />
        </mxCell>
        <mxCell id="s95GOLCqN3M0pa28icrX-2" value="&lt;font style=&quot;font-size: 24px;&quot;&gt;Hİ THERE!&lt;/font&gt;" style="rounded=0;whiteSpace=wrap;html=1;" parent="1" vertex="1">
          <mxGeometry x="270" y="2660" width="230" height="60" as="geometry" />
        </mxCell>
        <mxCell id="s95GOLCqN3M0pa28icrX-3" value="" style="endArrow=classic;html=1;rounded=0;" parent="1" edge="1">
          <mxGeometry width="50" height="50" relative="1" as="geometry">
            <mxPoint x="380" y="2720" as="sourcePoint" />
            <mxPoint x="380" y="2790" as="targetPoint" />
          </mxGeometry>
        </mxCell>
        <mxCell id="s95GOLCqN3M0pa28icrX-4" value="&lt;font style=&quot;font-size: 16px;&quot;&gt;[72 105 32 116 104 101 114 101 33]&lt;/font&gt;" style="rounded=0;whiteSpace=wrap;html=1;" parent="1" vertex="1">
          <mxGeometry x="254" y="2820" width="270" height="60" as="geometry" />
        </mxCell>
        <mxCell id="s95GOLCqN3M0pa28icrX-5" value="&lt;font style=&quot;font-size: 18px;&quot; color=&quot;#3333ff&quot;&gt;String&lt;/font&gt;" style="text;html=1;align=center;verticalAlign=middle;resizable=0;points=[];autosize=1;strokeColor=none;fillColor=none;" parent="1" vertex="1">
          <mxGeometry x="525" y="2670" width="70" height="40" as="geometry" />
        </mxCell>
        <mxCell id="s95GOLCqN3M0pa28icrX-6" value="&lt;font style=&quot;font-size: 17px;&quot; color=&quot;#3333ff&quot;&gt;byte slice&lt;/font&gt;" style="text;html=1;align=center;verticalAlign=middle;resizable=0;points=[];autosize=1;strokeColor=none;fillColor=none;" parent="1" vertex="1">
          <mxGeometry x="539" y="2835" width="90" height="30" as="geometry" />
        </mxCell>
        <mxCell id="s95GOLCqN3M0pa28icrX-7" value="ascii.table.com" style="text;html=1;align=center;verticalAlign=middle;resizable=0;points=[];autosize=1;strokeColor=none;fillColor=none;" parent="1" vertex="1">
          <mxGeometry x="335" y="2908" width="100" height="30" as="geometry" />
        </mxCell>
        <mxCell id="s95GOLCqN3M0pa28icrX-8" value="&lt;div style=&quot;font-size: 20px;&quot;&gt;&lt;b&gt;&lt;font style=&quot;font-size: 20px;&quot;&gt;type conversion&lt;/font&gt;&lt;/b&gt;&lt;/div&gt;&lt;div style=&quot;font-size: 20px;&quot;&gt;&lt;b&gt;&lt;font style=&quot;font-size: 20px;&quot;&gt;&lt;br&gt;&lt;/font&gt;&lt;/b&gt;&lt;/div&gt;" style="text;html=1;align=center;verticalAlign=middle;resizable=0;points=[];autosize=1;strokeColor=none;fillColor=none;" parent="1" vertex="1">
          <mxGeometry x="-10" y="2980" width="180" height="60" as="geometry" />
        </mxCell>
        <mxCell id="s95GOLCqN3M0pa28icrX-9" value="&lt;font style=&quot;font-size: 19px;&quot;&gt;[]byte&lt;/font&gt;" style="rounded=0;whiteSpace=wrap;html=1;fillColor=#d5e8d4;strokeColor=#82b366;" parent="1" vertex="1">
          <mxGeometry x="270" y="3040" width="80" height="40" as="geometry" />
        </mxCell>
        <mxCell id="s95GOLCqN3M0pa28icrX-10" value="&lt;font style=&quot;font-size: 18px;&quot;&gt;&quot;Hi There!&quot;&lt;/font&gt;" style="rounded=0;whiteSpace=wrap;html=1;fillColor=#dae8fc;strokeColor=#6c8ebf;" parent="1" vertex="1">
          <mxGeometry x="369" y="3040" width="98" height="40" as="geometry" />
        </mxCell>
        <mxCell id="s95GOLCqN3M0pa28icrX-11" value="&lt;font style=&quot;font-size: 29px;&quot;&gt;(&lt;/font&gt;" style="text;html=1;align=center;verticalAlign=middle;resizable=0;points=[];autosize=1;strokeColor=none;fillColor=none;" parent="1" vertex="1">
          <mxGeometry x="345" y="3038" width="30" height="50" as="geometry" />
        </mxCell>
        <mxCell id="s95GOLCqN3M0pa28icrX-12" value="&lt;font style=&quot;font-size: 30px;&quot;&gt;)&lt;/font&gt;" style="text;html=1;align=center;verticalAlign=middle;resizable=0;points=[];autosize=1;strokeColor=none;fillColor=none;" parent="1" vertex="1">
          <mxGeometry x="460" y="3040" width="30" height="50" as="geometry" />
        </mxCell>
        <mxCell id="s95GOLCqN3M0pa28icrX-13" value="&lt;font style=&quot;font-size: 17px;&quot;&gt;Type we want&lt;/font&gt;" style="text;html=1;align=center;verticalAlign=middle;resizable=0;points=[];autosize=1;strokeColor=none;fillColor=none;" parent="1" vertex="1">
          <mxGeometry x="245" y="3160" width="130" height="30" as="geometry" />
        </mxCell>
        <mxCell id="s95GOLCqN3M0pa28icrX-14" value="&lt;div style=&quot;font-size: 16px;&quot;&gt;&lt;font style=&quot;font-size: 16px;&quot;&gt;Value we have&lt;/font&gt;&lt;/div&gt;&lt;div style=&quot;font-size: 16px;&quot;&gt;&lt;font style=&quot;font-size: 16px;&quot;&gt;&lt;br&gt;&lt;/font&gt;&lt;/div&gt;" style="text;html=1;align=center;verticalAlign=middle;resizable=0;points=[];autosize=1;strokeColor=none;fillColor=none;" parent="1" vertex="1">
          <mxGeometry x="368.5" y="3160" width="130" height="50" as="geometry" />
        </mxCell>
        <mxCell id="s95GOLCqN3M0pa28icrX-15" value="" style="endArrow=classic;html=1;rounded=0;entryX=0.5;entryY=1;entryDx=0;entryDy=0;" parent="1" target="s95GOLCqN3M0pa28icrX-9" edge="1">
          <mxGeometry width="50" height="50" relative="1" as="geometry">
            <mxPoint x="310" y="3150" as="sourcePoint" />
            <mxPoint x="350" y="3120" as="targetPoint" />
          </mxGeometry>
        </mxCell>
        <mxCell id="s95GOLCqN3M0pa28icrX-16" value="" style="endArrow=classic;html=1;rounded=0;entryX=0.429;entryY=1;entryDx=0;entryDy=0;entryPerimeter=0;" parent="1" target="s95GOLCqN3M0pa28icrX-10" edge="1">
          <mxGeometry width="50" height="50" relative="1" as="geometry">
            <mxPoint x="411" y="3150" as="sourcePoint" />
            <mxPoint x="460" y="3110" as="targetPoint" />
          </mxGeometry>
        </mxCell>
        <mxCell id="s95GOLCqN3M0pa28icrX-17" value="&lt;font style=&quot;font-size: 21px;&quot;&gt;[]byte&lt;/font&gt;" style="rounded=0;whiteSpace=wrap;html=1;" parent="1" vertex="1">
          <mxGeometry x="318.75" y="3708" width="122.5" height="50" as="geometry" />
        </mxCell>
        <mxCell id="s95GOLCqN3M0pa28icrX-18" value="&lt;font style=&quot;font-size: 21px;&quot;&gt;string&lt;/font&gt;" style="rounded=0;whiteSpace=wrap;html=1;" parent="1" vertex="1">
          <mxGeometry x="315" y="3590" width="130" height="60" as="geometry" />
        </mxCell>
        <mxCell id="s95GOLCqN3M0pa28icrX-19" value="&lt;font style=&quot;font-size: 22px;&quot;&gt;deck&lt;/font&gt;" style="rounded=0;whiteSpace=wrap;html=1;" parent="1" vertex="1">
          <mxGeometry x="317.5" y="3360" width="125" height="60" as="geometry" />
        </mxCell>
        <mxCell id="s95GOLCqN3M0pa28icrX-20" value="&lt;font style=&quot;font-size: 19px;&quot;&gt;[]string&lt;/font&gt;" style="rounded=0;whiteSpace=wrap;html=1;" parent="1" vertex="1">
          <mxGeometry x="317.5" y="3480" width="125" height="60" as="geometry" />
        </mxCell>
        <mxCell id="s95GOLCqN3M0pa28icrX-21" value="&lt;font style=&quot;font-size: 17px;&quot;&gt;We have&lt;/font&gt;" style="text;html=1;align=center;verticalAlign=middle;resizable=0;points=[];autosize=1;strokeColor=none;fillColor=none;" parent="1" vertex="1">
          <mxGeometry x="205" y="3378" width="90" height="30" as="geometry" />
        </mxCell>
        <mxCell id="s95GOLCqN3M0pa28icrX-22" value="&lt;font style=&quot;font-size: 17px;&quot;&gt;We want&lt;/font&gt;" style="text;html=1;align=center;verticalAlign=middle;resizable=0;points=[];autosize=1;strokeColor=none;fillColor=none;" parent="1" vertex="1">
          <mxGeometry x="195" y="3708" width="90" height="30" as="geometry" />
        </mxCell>
        <mxCell id="s95GOLCqN3M0pa28icrX-23" value="" style="endArrow=classic;html=1;rounded=0;" parent="1" target="s95GOLCqN3M0pa28icrX-20" edge="1">
          <mxGeometry width="50" height="50" relative="1" as="geometry">
            <mxPoint x="380" y="3420" as="sourcePoint" />
            <mxPoint x="380" y="3470" as="targetPoint" />
          </mxGeometry>
        </mxCell>
        <mxCell id="s95GOLCqN3M0pa28icrX-27" value="" style="endArrow=classic;html=1;rounded=0;entryX=0.5;entryY=0;entryDx=0;entryDy=0;" parent="1" target="s95GOLCqN3M0pa28icrX-18" edge="1">
          <mxGeometry width="50" height="50" relative="1" as="geometry">
            <mxPoint x="380" y="3540" as="sourcePoint" />
            <mxPoint x="430" y="3490" as="targetPoint" />
          </mxGeometry>
        </mxCell>
        <mxCell id="s95GOLCqN3M0pa28icrX-28" value="" style="endArrow=classic;html=1;rounded=0;entryX=0.5;entryY=0;entryDx=0;entryDy=0;" parent="1" target="s95GOLCqN3M0pa28icrX-17" edge="1">
          <mxGeometry width="50" height="50" relative="1" as="geometry">
            <mxPoint x="380" y="3650" as="sourcePoint" />
            <mxPoint x="430" y="3600" as="targetPoint" />
          </mxGeometry>
        </mxCell>
        <mxCell id="s95GOLCqN3M0pa28icrX-29" value="&lt;div style=&quot;font-size: 16px;&quot;&gt;&lt;font style=&quot;font-size: 16px;&quot; color=&quot;#ff3333&quot;&gt;Not: SaveToFile fonk. için byte slice&lt;/font&gt;&lt;/div&gt;&lt;div style=&quot;font-size: 16px;&quot;&gt;&lt;font style=&quot;font-size: 16px;&quot; color=&quot;#ff3333&quot;&gt;&amp;nbsp;haline çevirmeye çalışıyoruz.&lt;/font&gt;&lt;/div&gt;" style="text;html=1;align=center;verticalAlign=middle;resizable=0;points=[];autosize=1;strokeColor=none;fillColor=none;" parent="1" vertex="1">
          <mxGeometry x="590" y="3315" width="270" height="50" as="geometry" />
        </mxCell>
        <mxCell id="h1pDrdD44T1eC31ymQUr-1" value="&lt;font style=&quot;font-size: 20px;&quot;&gt;err&lt;/font&gt;" style="rounded=0;whiteSpace=wrap;html=1;" parent="1" vertex="1">
          <mxGeometry x="285" y="3890" width="120" height="60" as="geometry" />
        </mxCell>
        <mxCell id="h1pDrdD44T1eC31ymQUr-2" value="&lt;font style=&quot;font-size: 18px;&quot;&gt;byteSlice&lt;/font&gt;" style="rounded=0;whiteSpace=wrap;html=1;" parent="1" vertex="1">
          <mxGeometry x="165" y="3890" width="120" height="60" as="geometry" />
        </mxCell>
        <mxCell id="h1pDrdD44T1eC31ymQUr-3" value="&lt;font style=&quot;font-size: 16px;&quot;&gt;ioutil.ReadFile(filename)&lt;/font&gt;" style="rounded=0;whiteSpace=wrap;html=1;" parent="1" vertex="1">
          <mxGeometry x="480" y="3890" width="200" height="60" as="geometry" />
        </mxCell>
        <mxCell id="h1pDrdD44T1eC31ymQUr-5" value="&lt;font style=&quot;font-size: 20px;&quot;&gt;:=&lt;/font&gt;" style="text;html=1;align=center;verticalAlign=middle;resizable=0;points=[];autosize=1;strokeColor=none;fillColor=none;" parent="1" vertex="1">
          <mxGeometry x="420" y="3900" width="40" height="40" as="geometry" />
        </mxCell>
        <mxCell id="h1pDrdD44T1eC31ymQUr-6" value="&lt;font style=&quot;font-size: 20px;&quot;&gt;&lt;b&gt;Testing with Go&lt;/b&gt;&lt;/font&gt;" style="text;html=1;align=center;verticalAlign=middle;resizable=0;points=[];autosize=1;strokeColor=none;fillColor=none;" parent="1" vertex="1">
          <mxGeometry x="20" y="4025" width="170" height="40" as="geometry" />
        </mxCell>
        <mxCell id="h1pDrdD44T1eC31ymQUr-7" value="&lt;font style=&quot;font-size: 21px;&quot;&gt;To make a test create a new file ending in _test.go&lt;/font&gt;" style="text;html=1;align=center;verticalAlign=middle;resizable=0;points=[];autosize=1;strokeColor=none;fillColor=none;" parent="1" vertex="1">
          <mxGeometry x="117.5" y="4100" width="490" height="40" as="geometry" />
        </mxCell>
        <mxCell id="h1pDrdD44T1eC31ymQUr-8" value="&lt;font style=&quot;font-size: 18px;&quot;&gt;deck_test.go&lt;/font&gt;" style="rounded=0;whiteSpace=wrap;html=1;" parent="1" vertex="1">
          <mxGeometry x="266" y="4160" width="120" height="60" as="geometry" />
        </mxCell>
        <mxCell id="h1pDrdD44T1eC31ymQUr-9" value="&lt;font style=&quot;font-size: 21px;&quot;&gt;To run all tests in a package, run the command&lt;/font&gt;" style="text;html=1;align=center;verticalAlign=middle;resizable=0;points=[];autosize=1;strokeColor=none;fillColor=none;" parent="1" vertex="1">
          <mxGeometry x="115" y="4253" width="460" height="40" as="geometry" />
        </mxCell>
        <mxCell id="h1pDrdD44T1eC31ymQUr-11" value="&lt;font style=&quot;font-size: 18px;&quot;&gt;go test&lt;/font&gt;" style="rounded=0;whiteSpace=wrap;html=1;" parent="1" vertex="1">
          <mxGeometry x="270" y="4310" width="120" height="60" as="geometry" />
        </mxCell>
        <mxCell id="ekGsHKFdT6WVVhspwc0s-1" value="&lt;font style=&quot;font-size: 22px;&quot;&gt;*pointer&lt;/font&gt;" style="rounded=0;whiteSpace=wrap;html=1;" vertex="1" parent="1">
          <mxGeometry x="99" y="4630" width="120" height="60" as="geometry" />
        </mxCell>
        <mxCell id="ekGsHKFdT6WVVhspwc0s-2" value="&lt;font style=&quot;font-size: 22px;&quot;&gt;&amp;amp;variable&lt;/font&gt;" style="rounded=0;whiteSpace=wrap;html=1;" vertex="1" parent="1">
          <mxGeometry x="99" y="4540" width="120" height="60" as="geometry" />
        </mxCell>
        <mxCell id="ekGsHKFdT6WVVhspwc0s-3" value="&lt;div style=&quot;font-size: 23px;&quot;&gt;&lt;font style=&quot;font-size: 23px;&quot;&gt;give me the memory adress of the value&lt;/font&gt;&lt;/div&gt;&lt;div style=&quot;font-size: 23px;&quot;&gt;&lt;font style=&quot;font-size: 23px;&quot;&gt;this variable is pointing at&lt;font style=&quot;font-size: 23px;&quot;&gt;&lt;br&gt;&lt;/font&gt;&lt;/font&gt;&lt;/div&gt;" style="text;html=1;align=center;verticalAlign=middle;resizable=0;points=[];autosize=1;strokeColor=none;fillColor=none;" vertex="1" parent="1">
          <mxGeometry x="269" y="4540" width="430" height="70" as="geometry" />
        </mxCell>
        <mxCell id="ekGsHKFdT6WVVhspwc0s-4" value="&lt;div style=&quot;font-size: 23px;&quot;&gt;&lt;font style=&quot;font-size: 23px;&quot;&gt;Give me the value this memory&lt;/font&gt;&lt;/div&gt;&lt;div style=&quot;font-size: 23px;&quot;&gt;&lt;font style=&quot;font-size: 23px;&quot;&gt;adress is pointing at&lt;font style=&quot;font-size: 23px;&quot;&gt;&lt;br&gt;&lt;/font&gt;&lt;/font&gt;&lt;/div&gt;" style="text;html=1;align=center;verticalAlign=middle;resizable=0;points=[];autosize=1;strokeColor=none;fillColor=none;" vertex="1" parent="1">
          <mxGeometry x="286.5" y="4630" width="340" height="70" as="geometry" />
        </mxCell>
        <mxCell id="ekGsHKFdT6WVVhspwc0s-16" value="&lt;b&gt;&lt;font style=&quot;font-size: 22px;&quot;&gt;Pointer operations&lt;/font&gt;&lt;/b&gt;" style="text;html=1;strokeColor=none;fillColor=none;align=center;verticalAlign=middle;whiteSpace=wrap;rounded=0;" vertex="1" parent="1">
          <mxGeometry x="55" y="4800" width="75" height="30" as="geometry" />
        </mxCell>
        <mxCell id="ekGsHKFdT6WVVhspwc0s-18" value="&lt;font style=&quot;font-size: 20px;&quot;&gt;person{firsName:&quot;jim&quot;..}&lt;/font&gt;" style="rounded=0;whiteSpace=wrap;html=1;" vertex="1" parent="1">
          <mxGeometry x="406.5" y="4880" width="253.5" height="60" as="geometry" />
        </mxCell>
        <mxCell id="ekGsHKFdT6WVVhspwc0s-19" value="&lt;font style=&quot;font-size: 22px;&quot;&gt;0001&lt;/font&gt;" style="rounded=0;whiteSpace=wrap;html=1;" vertex="1" parent="1">
          <mxGeometry x="286.5" y="4880" width="120" height="60" as="geometry" />
        </mxCell>
        <mxCell id="ekGsHKFdT6WVVhspwc0s-20" value="&lt;font style=&quot;font-size: 21px;&quot;&gt;RAM&lt;/font&gt;" style="text;html=1;align=center;verticalAlign=middle;resizable=0;points=[];autosize=1;strokeColor=none;fillColor=none;" vertex="1" parent="1">
          <mxGeometry x="441.25" y="4800" width="70" height="40" as="geometry" />
        </mxCell>
        <mxCell id="ekGsHKFdT6WVVhspwc0s-21" value="&lt;font style=&quot;font-size: 18px;&quot;&gt;Value&lt;/font&gt;" style="rounded=0;whiteSpace=wrap;html=1;fillColor=#ffe6cc;strokeColor=#d79b00;" vertex="1" parent="1">
          <mxGeometry x="490" y="5010" width="95" height="50" as="geometry" />
        </mxCell>
        <mxCell id="ekGsHKFdT6WVVhspwc0s-22" value="&lt;font style=&quot;font-size: 16px;&quot;&gt;Adress&lt;/font&gt;" style="rounded=0;whiteSpace=wrap;html=1;fillColor=#d5e8d4;strokeColor=#82b366;" vertex="1" parent="1">
          <mxGeometry x="300.25" y="5010" width="92.5" height="50" as="geometry" />
        </mxCell>
        <mxCell id="ekGsHKFdT6WVVhspwc0s-23" value="" style="endArrow=classic;html=1;rounded=0;entryX=0.438;entryY=1.05;entryDx=0;entryDy=0;entryPerimeter=0;" edge="1" parent="1" target="ekGsHKFdT6WVVhspwc0s-19">
          <mxGeometry width="50" height="50" relative="1" as="geometry">
            <mxPoint x="340" y="5010" as="sourcePoint" />
            <mxPoint x="390" y="4960" as="targetPoint" />
          </mxGeometry>
        </mxCell>
        <mxCell id="ekGsHKFdT6WVVhspwc0s-27" value="" style="endArrow=classic;html=1;rounded=0;entryX=0.5;entryY=1;entryDx=0;entryDy=0;" edge="1" parent="1" target="ekGsHKFdT6WVVhspwc0s-18">
          <mxGeometry width="50" height="50" relative="1" as="geometry">
            <mxPoint x="530" y="5010" as="sourcePoint" />
            <mxPoint x="580" y="4960" as="targetPoint" />
          </mxGeometry>
        </mxCell>
        <mxCell id="ekGsHKFdT6WVVhspwc0s-28" value="&lt;font style=&quot;font-size: 16px;&quot;&gt;Adress&lt;/font&gt;" style="rounded=0;whiteSpace=wrap;html=1;fillColor=#d5e8d4;strokeColor=#82b366;strokeWidth=0;" vertex="1" parent="1">
          <mxGeometry x="310" y="5120" width="92.5" height="50" as="geometry" />
        </mxCell>
        <mxCell id="ekGsHKFdT6WVVhspwc0s-29" value="&lt;font style=&quot;font-size: 18px;&quot;&gt;Value&lt;/font&gt;" style="rounded=0;whiteSpace=wrap;html=1;fillColor=#ffe6cc;strokeColor=#d79b00;strokeWidth=0;" vertex="1" parent="1">
          <mxGeometry x="498.5" y="5120" width="95" height="50" as="geometry" />
        </mxCell>
        <mxCell id="ekGsHKFdT6WVVhspwc0s-30" value="&lt;font style=&quot;font-size: 16px;&quot;&gt;&amp;amp;adress&lt;/font&gt;" style="rounded=0;whiteSpace=wrap;html=1;fillColor=#d5e8d4;strokeColor=#82b366;strokeWidth=0;" vertex="1" parent="1">
          <mxGeometry x="660" y="5120" width="92.5" height="50" as="geometry" />
        </mxCell>
        <mxCell id="ekGsHKFdT6WVVhspwc0s-31" value="&lt;font style=&quot;font-size: 18px;&quot;&gt;*value&lt;/font&gt;" style="rounded=0;whiteSpace=wrap;html=1;fillColor=#ffe6cc;strokeColor=#d79b00;strokeWidth=0;" vertex="1" parent="1">
          <mxGeometry x="660" y="5200" width="95" height="50" as="geometry" />
        </mxCell>
        <mxCell id="ekGsHKFdT6WVVhspwc0s-32" value="&lt;font style=&quot;font-size: 18px;&quot;&gt;Value&lt;/font&gt;" style="rounded=0;whiteSpace=wrap;html=1;fillColor=#ffe6cc;strokeColor=#d79b00;strokeWidth=0;" vertex="1" parent="1">
          <mxGeometry x="311.5" y="5210" width="95" height="50" as="geometry" />
        </mxCell>
        <mxCell id="ekGsHKFdT6WVVhspwc0s-33" value="&lt;font style=&quot;font-size: 16px;&quot;&gt;Adress&lt;/font&gt;" style="rounded=0;whiteSpace=wrap;html=1;fillColor=#d5e8d4;strokeColor=#82b366;strokeWidth=0;" vertex="1" parent="1">
          <mxGeometry x="497.5" y="5210" width="92.5" height="50" as="geometry" />
        </mxCell>
        <mxCell id="ekGsHKFdT6WVVhspwc0s-34" value="&lt;font style=&quot;font-size: 19px;&quot;&gt;turn&lt;/font&gt;" style="text;html=1;align=center;verticalAlign=middle;resizable=0;points=[];autosize=1;strokeColor=none;fillColor=none;strokeWidth=0;" vertex="1" parent="1">
          <mxGeometry x="236.5" y="5135" width="60" height="40" as="geometry" />
        </mxCell>
        <mxCell id="ekGsHKFdT6WVVhspwc0s-35" value="&lt;font style=&quot;font-size: 19px;&quot;&gt;into&lt;/font&gt;" style="text;html=1;align=center;verticalAlign=middle;resizable=0;points=[];autosize=1;strokeColor=none;fillColor=none;strokeWidth=0;" vertex="1" parent="1">
          <mxGeometry x="431.5" y="5133" width="50" height="40" as="geometry" />
        </mxCell>
        <mxCell id="ekGsHKFdT6WVVhspwc0s-36" value="&lt;font style=&quot;font-size: 19px;&quot;&gt;with&lt;/font&gt;" style="text;html=1;align=center;verticalAlign=middle;resizable=0;points=[];autosize=1;strokeColor=none;fillColor=none;strokeWidth=0;" vertex="1" parent="1">
          <mxGeometry x="597" y="5133" width="60" height="40" as="geometry" />
        </mxCell>
        <mxCell id="ekGsHKFdT6WVVhspwc0s-37" value="&lt;font style=&quot;font-size: 19px;&quot;&gt;turn&lt;/font&gt;" style="text;html=1;align=center;verticalAlign=middle;resizable=0;points=[];autosize=1;strokeColor=none;fillColor=none;strokeWidth=0;" vertex="1" parent="1">
          <mxGeometry x="235" y="5215" width="60" height="40" as="geometry" />
        </mxCell>
        <mxCell id="ekGsHKFdT6WVVhspwc0s-38" value="&lt;font style=&quot;font-size: 19px;&quot;&gt;into&lt;/font&gt;" style="text;html=1;align=center;verticalAlign=middle;resizable=0;points=[];autosize=1;strokeColor=none;fillColor=none;strokeWidth=0;" vertex="1" parent="1">
          <mxGeometry x="435" y="5215" width="50" height="40" as="geometry" />
        </mxCell>
        <mxCell id="ekGsHKFdT6WVVhspwc0s-39" value="&lt;font style=&quot;font-size: 19px;&quot;&gt;with&lt;/font&gt;" style="text;html=1;align=center;verticalAlign=middle;resizable=0;points=[];autosize=1;strokeColor=none;fillColor=none;strokeWidth=0;" vertex="1" parent="1">
          <mxGeometry x="600" y="5215" width="60" height="40" as="geometry" />
        </mxCell>
        <mxCell id="ekGsHKFdT6WVVhspwc0s-41" value="&lt;div&gt;&lt;font style=&quot;font-size: 25px;&quot;&gt;func (pointerToPerson &lt;font color=&quot;#990000&quot;&gt;*person&lt;/font&gt;) updateName) {&amp;nbsp;&lt;/font&gt;&lt;/div&gt;&lt;div&gt;&lt;font style=&quot;font-size: 25px;&quot; color=&quot;#006600&quot;&gt;&amp;nbsp;(*pointerToPerson)&lt;/font&gt;&lt;/div&gt;&lt;div&gt;&lt;font style=&quot;font-size: 25px;&quot;&gt;}&lt;br&gt;&lt;/font&gt;&lt;/div&gt;" style="text;html=1;align=center;verticalAlign=middle;resizable=0;points=[];autosize=1;strokeColor=none;fillColor=none;" vertex="1" parent="1">
          <mxGeometry x="268.75" y="5470" width="550" height="100" as="geometry" />
        </mxCell>
        <mxCell id="ekGsHKFdT6WVVhspwc0s-44" value="" style="endArrow=classic;html=1;rounded=0;" edge="1" parent="1">
          <mxGeometry width="50" height="50" relative="1" as="geometry">
            <mxPoint x="570" y="5470" as="sourcePoint" />
            <mxPoint x="570" y="5410" as="targetPoint" />
          </mxGeometry>
        </mxCell>
        <mxCell id="ekGsHKFdT6WVVhspwc0s-45" value="&lt;div style=&quot;font-size: 21px;&quot;&gt;&lt;font style=&quot;font-size: 21px;&quot;&gt;This is a type description it means&lt;/font&gt;&lt;/div&gt;&lt;div style=&quot;font-size: 21px;&quot;&gt;&lt;font style=&quot;font-size: 21px;&quot;&gt;we&#39;re working with a pointer&lt;/font&gt;&lt;/div&gt;&lt;div style=&quot;font-size: 21px;&quot;&gt;&lt;font style=&quot;font-size: 21px;&quot;&gt;to a person&lt;font style=&quot;font-size: 21px;&quot;&gt;&lt;br&gt;&lt;/font&gt;&lt;/font&gt;&lt;/div&gt;" style="text;html=1;align=center;verticalAlign=middle;resizable=0;points=[];autosize=1;strokeColor=none;fillColor=none;" vertex="1" parent="1">
          <mxGeometry x="415" y="5325" width="340" height="90" as="geometry" />
        </mxCell>
        <mxCell id="ekGsHKFdT6WVVhspwc0s-46" value="" style="endArrow=classic;html=1;rounded=0;" edge="1" parent="1">
          <mxGeometry width="50" height="50" relative="1" as="geometry">
            <mxPoint x="480" y="5560" as="sourcePoint" />
            <mxPoint x="480" y="5620" as="targetPoint" />
          </mxGeometry>
        </mxCell>
        <mxCell id="ekGsHKFdT6WVVhspwc0s-47" value="&lt;div style=&quot;font-size: 21px;&quot;&gt;&lt;font style=&quot;font-size: 21px;&quot;&gt;This is an operator-it means&lt;/font&gt;&lt;/div&gt;&lt;div style=&quot;font-size: 21px;&quot;&gt;&lt;font style=&quot;font-size: 21px;&quot;&gt;we want to manipulate the value the pointer is referencing&lt;font style=&quot;font-size: 21px;&quot;&gt;&lt;br&gt;&lt;/font&gt;&lt;/font&gt;&lt;/div&gt;" style="text;html=1;align=center;verticalAlign=middle;resizable=0;points=[];autosize=1;strokeColor=none;fillColor=none;" vertex="1" parent="1">
          <mxGeometry x="160" y="5613" width="560" height="60" as="geometry" />
        </mxCell>
        <mxCell id="ekGsHKFdT6WVVhspwc0s-48" value="&lt;font style=&quot;font-size: 19px;&quot;&gt;&lt;b&gt;MAPS&lt;/b&gt;&lt;/font&gt;" style="text;html=1;align=center;verticalAlign=middle;resizable=0;points=[];autosize=1;strokeColor=none;fillColor=none;" vertex="1" parent="1">
          <mxGeometry y="5720" width="80" height="40" as="geometry" />
        </mxCell>
        <mxCell id="ekGsHKFdT6WVVhspwc0s-49" value="&lt;div style=&quot;font-size: 32px;&quot;&gt;&lt;font style=&quot;font-size: 32px;&quot;&gt;func printMap(&lt;font color=&quot;#3333ff&quot;&gt;c&lt;/font&gt; &lt;font color=&quot;#990000&quot;&gt;map[string]string&lt;/font&gt;){&lt;/font&gt;&lt;/div&gt;&lt;div style=&quot;font-size: 32px;&quot;&gt;&lt;font style=&quot;font-size: 32px;&quot;&gt;for &lt;font color=&quot;#660033&quot;&gt;color&lt;/font&gt;, &lt;font color=&quot;#e5a50a&quot;&gt;hex&lt;/font&gt; := range c {&lt;/font&gt;&lt;/div&gt;&lt;div style=&quot;font-size: 32px;&quot;&gt;&lt;font style=&quot;font-size: 32px;&quot;&gt;{&lt;/font&gt;&lt;/div&gt;&lt;div style=&quot;font-size: 32px;&quot;&gt;&lt;font style=&quot;font-size: 32px;&quot;&gt;{&lt;font style=&quot;font-size: 32px;&quot;&gt;&lt;br&gt;&lt;/font&gt;&lt;/font&gt;&lt;/div&gt;" style="text;html=1;align=center;verticalAlign=middle;resizable=0;points=[];autosize=1;strokeColor=none;fillColor=none;" vertex="1" parent="1">
          <mxGeometry x="260" y="5900" width="510" height="170" as="geometry" />
        </mxCell>
        <mxCell id="ekGsHKFdT6WVVhspwc0s-50" value="" style="endArrow=classic;html=1;rounded=0;" edge="1" parent="1">
          <mxGeometry width="50" height="50" relative="1" as="geometry">
            <mxPoint x="390" y="5980" as="sourcePoint" />
            <mxPoint x="390" y="6070" as="targetPoint" />
          </mxGeometry>
        </mxCell>
        <mxCell id="ekGsHKFdT6WVVhspwc0s-51" value="" style="endArrow=classic;html=1;rounded=0;entryX=0.309;entryY=0.017;entryDx=0;entryDy=0;entryPerimeter=0;" edge="1" parent="1" target="ekGsHKFdT6WVVhspwc0s-53">
          <mxGeometry width="50" height="50" relative="1" as="geometry">
            <mxPoint x="496.45" y="5995" as="sourcePoint" />
            <mxPoint x="496.45" y="6085" as="targetPoint" />
          </mxGeometry>
        </mxCell>
        <mxCell id="ekGsHKFdT6WVVhspwc0s-52" value="&lt;div style=&quot;font-size: 19px;&quot;&gt;&lt;font style=&quot;font-size: 19px;&quot;&gt;Key for this&lt;/font&gt;&lt;/div&gt;&lt;div style=&quot;font-size: 19px;&quot;&gt;&lt;font style=&quot;font-size: 19px;&quot;&gt;step through the loop&lt;font style=&quot;font-size: 19px;&quot;&gt;&lt;br&gt;&lt;/font&gt;&lt;/font&gt;&lt;/div&gt;" style="text;html=1;align=center;verticalAlign=middle;resizable=0;points=[];autosize=1;strokeColor=none;fillColor=none;" vertex="1" parent="1">
          <mxGeometry x="261.5" y="6090" width="200" height="60" as="geometry" />
        </mxCell>
        <mxCell id="ekGsHKFdT6WVVhspwc0s-53" value="&lt;div style=&quot;font-size: 16px;&quot;&gt;&lt;font style=&quot;font-size: 16px;&quot;&gt;Value for this step&amp;nbsp;&lt;/font&gt;&lt;/div&gt;&lt;div style=&quot;font-size: 16px;&quot;&gt;&lt;font style=&quot;font-size: 16px;&quot;&gt;through&lt;/font&gt;&lt;/div&gt;&lt;div style=&quot;font-size: 16px;&quot;&gt;&lt;font style=&quot;font-size: 16px;&quot;&gt;the loop&lt;font style=&quot;font-size: 16px;&quot;&gt;&lt;br&gt;&lt;/font&gt;&lt;/font&gt;&lt;/div&gt;" style="text;html=1;align=center;verticalAlign=middle;resizable=0;points=[];autosize=1;strokeColor=none;fillColor=none;" vertex="1" parent="1">
          <mxGeometry x="450" y="6085" width="150" height="70" as="geometry" />
        </mxCell>
        <mxCell id="ekGsHKFdT6WVVhspwc0s-54" value="" style="endArrow=classic;html=1;rounded=0;" edge="1" parent="1">
          <mxGeometry width="50" height="50" relative="1" as="geometry">
            <mxPoint x="480" y="5840" as="sourcePoint" />
            <mxPoint x="480" y="5890" as="targetPoint" />
          </mxGeometry>
        </mxCell>
        <mxCell id="ekGsHKFdT6WVVhspwc0s-55" value="&lt;div style=&quot;font-size: 19px;&quot;&gt;&lt;font style=&quot;font-size: 19px;&quot;&gt;argument&lt;/font&gt;&lt;/div&gt;&lt;div style=&quot;font-size: 19px;&quot;&gt;&lt;font style=&quot;font-size: 19px;&quot;&gt;name&lt;font style=&quot;font-size: 19px;&quot;&gt;&lt;br&gt;&lt;/font&gt;&lt;/font&gt;&lt;/div&gt;" style="text;html=1;align=center;verticalAlign=middle;resizable=0;points=[];autosize=1;strokeColor=none;fillColor=none;" vertex="1" parent="1">
          <mxGeometry x="437" y="5770" width="100" height="60" as="geometry" />
        </mxCell>
        <mxCell id="ekGsHKFdT6WVVhspwc0s-56" value="" style="endArrow=classic;html=1;rounded=0;" edge="1" parent="1">
          <mxGeometry width="50" height="50" relative="1" as="geometry">
            <mxPoint x="600" y="5840" as="sourcePoint" />
            <mxPoint x="600" y="5890" as="targetPoint" />
          </mxGeometry>
        </mxCell>
        <mxCell id="ekGsHKFdT6WVVhspwc0s-57" value="&lt;font style=&quot;font-size: 18px;&quot;&gt;type of the map&lt;/font&gt;" style="text;html=1;align=center;verticalAlign=middle;resizable=0;points=[];autosize=1;strokeColor=none;fillColor=none;" vertex="1" parent="1">
          <mxGeometry x="527" y="5795" width="150" height="40" as="geometry" />
        </mxCell>
      </root>
    </mxGraphModel>
  </diagram>
  <diagram name="002 - cards" id="sYJ1UIvSet9_91HuQsrW">
    <mxGraphModel dx="990" dy="431" grid="1" gridSize="10" guides="1" tooltips="1" connect="1" arrows="1" fold="1" page="1" pageScale="1" pageWidth="1100" pageHeight="850" background="#ffffff" math="0" shadow="0">
      <root>
        <mxCell id="0" />
        <mxCell id="1" parent="0" />
        <mxCell id="2" value="" style="rounded=0;whiteSpace=wrap;html=1;shadow=0;labelBackgroundColor=none;strokeColor=#080808;strokeWidth=2;fillColor=#ffffff;fontSize=22;fontColor=#000000;align=center;" vertex="1" parent="1">
          <mxGeometry x="320" y="205" width="240" height="405" as="geometry" />
        </mxCell>
        <mxCell id="3" value="Cards" style="text;html=1;strokeColor=none;fillColor=none;align=center;verticalAlign=middle;whiteSpace=wrap;rounded=0;shadow=0;labelBackgroundColor=none;fontSize=32;fontColor=#000000;" vertex="1" parent="1">
          <mxGeometry x="390" y="170" width="100" height="30" as="geometry" />
        </mxCell>
        <mxCell id="14" style="edgeStyle=orthogonalEdgeStyle;rounded=0;html=1;exitX=1;exitY=0.5;startArrow=none;startFill=0;endArrow=classic;endFill=1;jettySize=auto;orthogonalLoop=1;strokeColor=#000000;strokeWidth=3;fontSize=22;fontColor=#000000;" edge="1" parent="1" source="4">
          <mxGeometry relative="1" as="geometry">
            <mxPoint x="600" y="245" as="targetPoint" />
          </mxGeometry>
        </mxCell>
        <mxCell id="4" value="newDeck" style="rounded=0;whiteSpace=wrap;html=1;shadow=0;labelBackgroundColor=none;strokeColor=#080808;strokeWidth=2;fillColor=#ffffff;fontSize=22;fontColor=#000000;align=center;" vertex="1" parent="1">
          <mxGeometry x="345" y="220" width="190" height="50" as="geometry" />
        </mxCell>
        <mxCell id="8" value="print" style="rounded=0;whiteSpace=wrap;html=1;shadow=0;labelBackgroundColor=none;strokeColor=#080808;strokeWidth=2;fillColor=#ffffff;fontSize=22;fontColor=#000000;align=center;" vertex="1" parent="1">
          <mxGeometry x="345" y="284" width="190" height="50" as="geometry" />
        </mxCell>
        <mxCell id="9" value="shuffle" style="rounded=0;whiteSpace=wrap;html=1;shadow=0;labelBackgroundColor=none;strokeColor=#080808;strokeWidth=2;fillColor=#ffffff;fontSize=22;fontColor=#000000;align=center;" vertex="1" parent="1">
          <mxGeometry x="345" y="348" width="190" height="50" as="geometry" />
        </mxCell>
        <mxCell id="10" value="deal" style="rounded=0;whiteSpace=wrap;html=1;shadow=0;labelBackgroundColor=none;strokeColor=#080808;strokeWidth=2;fillColor=#ffffff;fontSize=22;fontColor=#000000;align=center;" vertex="1" parent="1">
          <mxGeometry x="345" y="412" width="190" height="50" as="geometry" />
        </mxCell>
        <mxCell id="11" value="saveToFile" style="rounded=0;whiteSpace=wrap;html=1;shadow=0;labelBackgroundColor=none;strokeColor=#080808;strokeWidth=2;fillColor=#ffffff;fontSize=22;fontColor=#000000;align=center;" vertex="1" parent="1">
          <mxGeometry x="345" y="476" width="190" height="50" as="geometry" />
        </mxCell>
        <mxCell id="13" value="newDeckFromFile" style="rounded=0;whiteSpace=wrap;html=1;shadow=0;labelBackgroundColor=none;strokeColor=#080808;strokeWidth=2;fillColor=#ffffff;fontSize=22;fontColor=#000000;align=center;" vertex="1" parent="1">
          <mxGeometry x="345" y="540" width="190" height="50" as="geometry" />
        </mxCell>
        <mxCell id="15" value="Create a list of playing cards. &amp;nbsp;Essentially an array of strings" style="text;html=1;strokeColor=none;fillColor=none;align=left;verticalAlign=middle;whiteSpace=wrap;rounded=0;shadow=0;labelBackgroundColor=none;fontSize=14;fontColor=#000000;" vertex="1" parent="1">
          <mxGeometry x="602" y="218" width="170" height="55" as="geometry" />
        </mxCell>
        <mxCell id="16" style="edgeStyle=orthogonalEdgeStyle;rounded=0;html=1;exitX=1;exitY=0.5;startArrow=none;startFill=0;endArrow=classic;endFill=1;jettySize=auto;orthogonalLoop=1;strokeColor=#000000;strokeWidth=3;fontSize=22;fontColor=#000000;" edge="1" parent="1">
          <mxGeometry relative="1" as="geometry">
            <mxPoint x="600" y="309" as="targetPoint" />
            <mxPoint x="535" y="309" as="sourcePoint" />
          </mxGeometry>
        </mxCell>
        <mxCell id="17" value="Log out the contents of a deck of cards" style="text;html=1;strokeColor=none;fillColor=none;align=left;verticalAlign=middle;whiteSpace=wrap;rounded=0;shadow=0;labelBackgroundColor=none;fontSize=14;fontColor=#000000;" vertex="1" parent="1">
          <mxGeometry x="602" y="282" width="170" height="55" as="geometry" />
        </mxCell>
        <mxCell id="18" style="edgeStyle=orthogonalEdgeStyle;rounded=0;html=1;exitX=1;exitY=0.5;startArrow=none;startFill=0;endArrow=classic;endFill=1;jettySize=auto;orthogonalLoop=1;strokeColor=#000000;strokeWidth=3;fontSize=22;fontColor=#000000;" edge="1" parent="1">
          <mxGeometry relative="1" as="geometry">
            <mxPoint x="600" y="373" as="targetPoint" />
            <mxPoint x="535" y="373" as="sourcePoint" />
          </mxGeometry>
        </mxCell>
        <mxCell id="19" value="Shuffles all the cards in a deck" style="text;html=1;strokeColor=none;fillColor=none;align=left;verticalAlign=middle;whiteSpace=wrap;rounded=0;shadow=0;labelBackgroundColor=none;fontSize=14;fontColor=#000000;" vertex="1" parent="1">
          <mxGeometry x="602" y="346" width="170" height="55" as="geometry" />
        </mxCell>
        <mxCell id="20" style="edgeStyle=orthogonalEdgeStyle;rounded=0;html=1;exitX=1;exitY=0.5;startArrow=none;startFill=0;endArrow=classic;endFill=1;jettySize=auto;orthogonalLoop=1;strokeColor=#000000;strokeWidth=3;fontSize=22;fontColor=#000000;" edge="1" parent="1">
          <mxGeometry relative="1" as="geometry">
            <mxPoint x="600" y="437" as="targetPoint" />
            <mxPoint x="535" y="437" as="sourcePoint" />
          </mxGeometry>
        </mxCell>
        <mxCell id="21" value="Create a &#39;hand&#39; of cards." style="text;html=1;strokeColor=none;fillColor=none;align=left;verticalAlign=middle;whiteSpace=wrap;rounded=0;shadow=0;labelBackgroundColor=none;fontSize=14;fontColor=#000000;" vertex="1" parent="1">
          <mxGeometry x="602" y="410" width="170" height="55" as="geometry" />
        </mxCell>
        <mxCell id="22" style="edgeStyle=orthogonalEdgeStyle;rounded=0;html=1;exitX=1;exitY=0.5;startArrow=none;startFill=0;endArrow=classic;endFill=1;jettySize=auto;orthogonalLoop=1;strokeColor=#000000;strokeWidth=3;fontSize=22;fontColor=#000000;" edge="1" parent="1">
          <mxGeometry relative="1" as="geometry">
            <mxPoint x="600" y="501" as="targetPoint" />
            <mxPoint x="535" y="501" as="sourcePoint" />
          </mxGeometry>
        </mxCell>
        <mxCell id="23" value="Save a list of cards to a file on the local machine" style="text;html=1;strokeColor=none;fillColor=none;align=left;verticalAlign=middle;whiteSpace=wrap;rounded=0;shadow=0;labelBackgroundColor=none;fontSize=14;fontColor=#000000;" vertex="1" parent="1">
          <mxGeometry x="602" y="474" width="170" height="55" as="geometry" />
        </mxCell>
        <mxCell id="24" style="edgeStyle=orthogonalEdgeStyle;rounded=0;html=1;exitX=1;exitY=0.5;startArrow=none;startFill=0;endArrow=classic;endFill=1;jettySize=auto;orthogonalLoop=1;strokeColor=#000000;strokeWidth=3;fontSize=22;fontColor=#000000;" edge="1" parent="1">
          <mxGeometry relative="1" as="geometry">
            <mxPoint x="600" y="565" as="targetPoint" />
            <mxPoint x="535" y="565" as="sourcePoint" />
          </mxGeometry>
        </mxCell>
        <mxCell id="25" value="Load a list of cards from the local machine" style="text;html=1;strokeColor=none;fillColor=none;align=left;verticalAlign=middle;whiteSpace=wrap;rounded=0;shadow=0;labelBackgroundColor=none;fontSize=14;fontColor=#000000;" vertex="1" parent="1">
          <mxGeometry x="602" y="538" width="170" height="55" as="geometry" />
        </mxCell>
      </root>
    </mxGraphModel>
  </diagram>
  <diagram name="021 - compilation" id="Hr6mVC0h3nWJxYmyb4CP">
    <mxGraphModel dx="1238" dy="539" grid="1" gridSize="10" guides="1" tooltips="1" connect="1" arrows="1" fold="1" page="1" pageScale="1" pageWidth="1100" pageHeight="850" background="#ffffff" math="0" shadow="0">
      <root>
        <mxCell id="0" />
        <mxCell id="1" parent="0" />
        <mxCell id="20" style="edgeStyle=orthogonalEdgeStyle;rounded=0;html=1;exitX=0.5;exitY=1;entryX=0.5;entryY=0;startArrow=none;startFill=0;endArrow=classic;endFill=1;jettySize=auto;orthogonalLoop=1;strokeColor=#000000;strokeWidth=3;fontSize=22;fontColor=#000000;" edge="1" parent="1" target="13">
          <mxGeometry relative="1" as="geometry">
            <mxPoint x="433" y="230" as="sourcePoint" />
          </mxGeometry>
        </mxCell>
        <mxCell id="2" value="" style="rounded=0;whiteSpace=wrap;html=1;shadow=0;labelBackgroundColor=none;strokeColor=#080808;strokeWidth=2;fillColor=#ffffff;fontSize=32;fontColor=#000000;align=center;" vertex="1" parent="1">
          <mxGeometry x="401" y="120" width="333" height="110" as="geometry" />
        </mxCell>
        <mxCell id="3" value="Raw Source Code" style="text;html=1;strokeColor=none;fillColor=none;align=center;verticalAlign=middle;whiteSpace=wrap;rounded=0;shadow=0;labelBackgroundColor=none;fontSize=32;fontColor=#000000;" vertex="1" parent="1">
          <mxGeometry x="400" y="90" width="330" height="20" as="geometry" />
        </mxCell>
        <mxCell id="4" value="main.go" style="rounded=0;whiteSpace=wrap;html=1;shadow=0;labelBackgroundColor=none;strokeColor=#080808;strokeWidth=2;fillColor=#ffffff;fontSize=32;fontColor=#000000;align=center;" vertex="1" parent="1">
          <mxGeometry x="493" y="145" width="150" height="60" as="geometry" />
        </mxCell>
        <mxCell id="22" style="edgeStyle=orthogonalEdgeStyle;rounded=0;html=1;exitX=0.5;exitY=1;entryX=0.5;entryY=0;startArrow=none;startFill=0;endArrow=classic;endFill=1;jettySize=auto;orthogonalLoop=1;strokeColor=#000000;strokeWidth=3;fontSize=22;fontColor=#000000;" edge="1" parent="1" source="8" target="10">
          <mxGeometry relative="1" as="geometry" />
        </mxCell>
        <mxCell id="8" value="Go Compiler" style="rounded=0;whiteSpace=wrap;html=1;shadow=0;labelBackgroundColor=none;strokeColor=#080808;strokeWidth=2;fillColor=#ffffff;fontSize=22;fontColor=#000000;align=center;" vertex="1" parent="1">
          <mxGeometry x="322" y="340" width="222" height="40" as="geometry" />
        </mxCell>
        <mxCell id="23" style="edgeStyle=orthogonalEdgeStyle;rounded=0;html=1;exitX=0.5;exitY=1;entryX=0.5;entryY=0;startArrow=none;startFill=0;endArrow=classic;endFill=1;jettySize=auto;orthogonalLoop=1;strokeColor=#000000;strokeWidth=3;fontSize=22;fontColor=#000000;" edge="1" parent="1" source="10" target="19">
          <mxGeometry relative="1" as="geometry" />
        </mxCell>
        <mxCell id="10" value="Executable Program" style="rounded=0;whiteSpace=wrap;html=1;shadow=0;labelBackgroundColor=none;strokeColor=#080808;strokeWidth=2;fillColor=#ffffff;fontSize=22;fontColor=#000000;align=center;" vertex="1" parent="1">
          <mxGeometry x="321" y="420" width="223" height="40" as="geometry" />
        </mxCell>
        <mxCell id="11" value="How do we run the code in our project?" style="rounded=0;whiteSpace=wrap;html=1;shadow=0;labelBackgroundColor=none;strokeColor=#6c8ebf;strokeWidth=2;fillColor=#dae8fc;fontSize=22;fontColor=#000000;align=center;" vertex="1" parent="1">
          <mxGeometry x="90" y="100" width="210" height="65" as="geometry" />
        </mxCell>
        <mxCell id="21" style="edgeStyle=orthogonalEdgeStyle;rounded=0;html=1;exitX=0.5;exitY=1;entryX=0.5;entryY=0;startArrow=none;startFill=0;endArrow=classic;endFill=1;jettySize=auto;orthogonalLoop=1;strokeColor=#000000;strokeWidth=3;fontSize=22;fontColor=#000000;" edge="1" parent="1" source="13" target="8">
          <mxGeometry relative="1" as="geometry" />
        </mxCell>
        <mxCell id="13" value="go &lt;b&gt;run&lt;/b&gt; main.go" style="rounded=0;whiteSpace=wrap;html=1;shadow=0;labelBackgroundColor=none;strokeColor=#080808;strokeWidth=2;fillColor=#ffffff;fontSize=22;fontColor=#000000;align=center;fontStyle=2" vertex="1" parent="1">
          <mxGeometry x="322" y="260" width="222" height="40" as="geometry" />
        </mxCell>
        <mxCell id="19" value="Runs the program" style="rounded=0;whiteSpace=wrap;html=1;shadow=0;labelBackgroundColor=none;strokeColor=#080808;strokeWidth=2;fillColor=#ffffff;fontSize=22;fontColor=#000000;align=center;" vertex="1" parent="1">
          <mxGeometry x="321" y="500" width="223" height="40" as="geometry" />
        </mxCell>
        <mxCell id="24" style="edgeStyle=orthogonalEdgeStyle;rounded=0;html=1;exitX=0.5;exitY=1;entryX=0.5;entryY=0;startArrow=none;startFill=0;endArrow=classic;endFill=1;jettySize=auto;orthogonalLoop=1;strokeColor=#000000;strokeWidth=3;fontSize=22;fontColor=#000000;" edge="1" target="30" parent="1">
          <mxGeometry relative="1" as="geometry">
            <mxPoint x="713" y="230" as="sourcePoint" />
          </mxGeometry>
        </mxCell>
        <mxCell id="25" style="edgeStyle=orthogonalEdgeStyle;rounded=0;html=1;exitX=0.5;exitY=1;entryX=0.5;entryY=0;startArrow=none;startFill=0;endArrow=classic;endFill=1;jettySize=auto;orthogonalLoop=1;strokeColor=#000000;strokeWidth=3;fontSize=22;fontColor=#000000;" edge="1" source="26" target="28" parent="1">
          <mxGeometry relative="1" as="geometry" />
        </mxCell>
        <mxCell id="26" value="Go Compiler" style="rounded=0;whiteSpace=wrap;html=1;shadow=0;labelBackgroundColor=none;strokeColor=#080808;strokeWidth=2;fillColor=#ffffff;fontSize=22;fontColor=#000000;align=center;" vertex="1" parent="1">
          <mxGeometry x="602" y="340" width="222" height="40" as="geometry" />
        </mxCell>
        <mxCell id="28" value="Executable Program" style="rounded=0;whiteSpace=wrap;html=1;shadow=0;labelBackgroundColor=none;strokeColor=#080808;strokeWidth=2;fillColor=#ffffff;fontSize=22;fontColor=#000000;align=center;" vertex="1" parent="1">
          <mxGeometry x="601" y="420" width="223" height="40" as="geometry" />
        </mxCell>
        <mxCell id="29" style="edgeStyle=orthogonalEdgeStyle;rounded=0;html=1;exitX=0.5;exitY=1;entryX=0.5;entryY=0;startArrow=none;startFill=0;endArrow=classic;endFill=1;jettySize=auto;orthogonalLoop=1;strokeColor=#000000;strokeWidth=3;fontSize=22;fontColor=#000000;" edge="1" source="30" target="26" parent="1">
          <mxGeometry relative="1" as="geometry" />
        </mxCell>
        <mxCell id="30" value="go &lt;b&gt;build&lt;/b&gt; main.go" style="rounded=0;whiteSpace=wrap;html=1;shadow=0;labelBackgroundColor=none;strokeColor=#080808;strokeWidth=2;fillColor=#ffffff;fontSize=22;fontColor=#000000;align=center;fontStyle=2" vertex="1" parent="1">
          <mxGeometry x="602" y="260" width="222" height="40" as="geometry" />
        </mxCell>
        <mxCell id="32" value="build" style="text;html=1;strokeColor=none;fillColor=none;align=center;verticalAlign=middle;whiteSpace=wrap;rounded=0;shadow=0;labelBackgroundColor=none;fontSize=32;fontColor=#000000;fontStyle=2" vertex="1" parent="1">
          <mxGeometry x="840" y="270" width="70" height="20" as="geometry" />
        </mxCell>
        <mxCell id="33" value="run" style="text;html=1;strokeColor=none;fillColor=none;align=center;verticalAlign=middle;whiteSpace=wrap;rounded=0;shadow=0;labelBackgroundColor=none;fontSize=32;fontColor=#000000;fontStyle=2" vertex="1" parent="1">
          <mxGeometry x="250" y="270" width="70" height="20" as="geometry" />
        </mxCell>
      </root>
    </mxGraphModel>
  </diagram>
  <diagram name="021 - questions" id="oZiru8BSXGDN-nySzns4">
    <mxGraphModel dx="1238" dy="539" grid="1" gridSize="10" guides="1" tooltips="1" connect="1" arrows="1" fold="1" page="1" pageScale="1" pageWidth="1100" pageHeight="850" background="#ffffff" math="0" shadow="0">
      <root>
        <mxCell id="0" />
        <mxCell id="1" parent="0" />
        <mxCell id="2" value="How do we run the code in our project?" style="rounded=0;whiteSpace=wrap;html=1;shadow=0;labelBackgroundColor=none;strokeColor=#6c8ebf;strokeWidth=2;fillColor=#dae8fc;fontSize=32;fontColor=#000000;align=center;" vertex="1" parent="1">
          <mxGeometry x="235" y="150" width="290" height="130" as="geometry" />
        </mxCell>
        <mxCell id="3" value="Questions!" style="text;html=1;strokeColor=none;fillColor=none;align=center;verticalAlign=middle;whiteSpace=wrap;rounded=0;shadow=0;labelBackgroundColor=none;fontSize=32;fontColor=#000000;fontStyle=5" vertex="1" parent="1">
          <mxGeometry x="445" y="80" width="200" height="50" as="geometry" />
        </mxCell>
        <mxCell id="4" value="What does &#39;&lt;i&gt;package main&lt;/i&gt;&#39; mean?" style="rounded=0;whiteSpace=wrap;html=1;shadow=0;labelBackgroundColor=none;strokeColor=#82b366;strokeWidth=2;fillColor=#d5e8d4;fontSize=32;fontColor=#000000;align=center;" vertex="1" parent="1">
          <mxGeometry x="580" y="150" width="290" height="130" as="geometry" />
        </mxCell>
        <mxCell id="5" value="What does &#39;&lt;i&gt;import &quot;fmt&quot;&lt;/i&gt;&#39; mean?" style="rounded=0;whiteSpace=wrap;html=1;shadow=0;labelBackgroundColor=none;strokeColor=#b85450;strokeWidth=2;fillColor=#f8cecc;fontSize=32;fontColor=#000000;align=center;" vertex="1" parent="1">
          <mxGeometry x="235" y="300" width="290" height="130" as="geometry" />
        </mxCell>
        <mxCell id="6" value="How is the main.go file organized?" style="rounded=0;whiteSpace=wrap;html=1;shadow=0;labelBackgroundColor=none;strokeColor=#d79b00;strokeWidth=2;fillColor=#ffe6cc;fontSize=32;fontColor=#000000;align=center;" vertex="1" parent="1">
          <mxGeometry x="405" y="460" width="290" height="130" as="geometry" />
        </mxCell>
        <mxCell id="7" value="What&#39;s that &#39;&lt;i&gt;func&#39; &lt;/i&gt;thing?" style="rounded=0;whiteSpace=wrap;html=1;shadow=0;labelBackgroundColor=none;strokeColor=#9673a6;strokeWidth=2;fillColor=#e1d5e7;fontSize=32;fontColor=#000000;align=center;" vertex="1" parent="1">
          <mxGeometry x="575" y="300" width="290" height="130" as="geometry" />
        </mxCell>
      </root>
    </mxGraphModel>
  </diagram>
  <diagram name="003 - go cli" id="BRzyGVZYeF_2WPpZG1cj">
    <mxGraphModel dx="1238" dy="539" grid="1" gridSize="10" guides="1" tooltips="1" connect="1" arrows="1" fold="1" page="1" pageScale="1" pageWidth="1100" pageHeight="850" background="#ffffff" math="0" shadow="0">
      <root>
        <mxCell id="0" />
        <mxCell id="1" parent="0" />
        <mxCell id="2" value="" style="rounded=0;whiteSpace=wrap;html=1;shadow=0;labelBackgroundColor=none;strokeColor=#080808;strokeWidth=2;fillColor=#ffffff;fontSize=14;fontColor=#000000;align=left;" vertex="1" parent="1">
          <mxGeometry x="310" y="110" width="240" height="500" as="geometry" />
        </mxCell>
        <mxCell id="3" value="Go CLI" style="text;html=1;strokeColor=none;fillColor=none;align=center;verticalAlign=middle;whiteSpace=wrap;rounded=0;shadow=0;labelBackgroundColor=none;fontSize=32;fontColor=#000000;" vertex="1" parent="1">
          <mxGeometry x="315" y="78" width="230" height="30" as="geometry" />
        </mxCell>
        <mxCell id="11" style="edgeStyle=orthogonalEdgeStyle;rounded=0;html=1;exitX=1;exitY=0.5;startArrow=none;startFill=0;endArrow=classic;endFill=1;jettySize=auto;orthogonalLoop=1;strokeColor=#000000;strokeWidth=3;fontSize=32;fontColor=#000000;" edge="1" parent="1" source="6">
          <mxGeometry relative="1" as="geometry">
            <mxPoint x="590" y="160" as="targetPoint" />
          </mxGeometry>
        </mxCell>
        <mxCell id="6" value="go build" style="rounded=0;whiteSpace=wrap;html=1;shadow=0;labelBackgroundColor=none;strokeColor=#080808;strokeWidth=2;fillColor=#ffffff;fontSize=32;fontColor=#000000;align=center;flipV=1;" vertex="1" parent="1">
          <mxGeometry x="330" y="130" width="200" height="60" as="geometry" />
        </mxCell>
        <mxCell id="7" value="go run" style="rounded=0;whiteSpace=wrap;html=1;shadow=0;labelBackgroundColor=none;strokeColor=#080808;strokeWidth=2;fillColor=#ffffff;fontSize=32;fontColor=#000000;align=center;flipV=1;" vertex="1" parent="1">
          <mxGeometry x="330" y="210" width="200" height="60" as="geometry" />
        </mxCell>
        <mxCell id="8" value="go fmt" style="rounded=0;whiteSpace=wrap;html=1;shadow=0;labelBackgroundColor=none;strokeColor=#080808;strokeWidth=2;fillColor=#ffffff;fontSize=32;fontColor=#000000;align=center;flipV=1;" vertex="1" parent="1">
          <mxGeometry x="330" y="290" width="200" height="60" as="geometry" />
        </mxCell>
        <mxCell id="9" value="go install" style="rounded=0;whiteSpace=wrap;html=1;shadow=0;labelBackgroundColor=none;strokeColor=#080808;strokeWidth=2;fillColor=#ffffff;fontSize=32;fontColor=#000000;align=center;flipV=1;" vertex="1" parent="1">
          <mxGeometry x="330" y="370" width="200" height="60" as="geometry" />
        </mxCell>
        <mxCell id="10" value="go test" style="rounded=0;whiteSpace=wrap;html=1;shadow=0;labelBackgroundColor=none;strokeColor=#080808;strokeWidth=2;fillColor=#ffffff;fontSize=32;fontColor=#000000;align=center;flipV=1;" vertex="1" parent="1">
          <mxGeometry x="330" y="530" width="200" height="60" as="geometry" />
        </mxCell>
        <mxCell id="12" value="Compiles a bunch of go source code files" style="text;html=1;strokeColor=none;fillColor=none;align=left;verticalAlign=middle;whiteSpace=wrap;rounded=0;shadow=0;labelBackgroundColor=none;fontSize=16;fontColor=#000000;" vertex="1" parent="1">
          <mxGeometry x="600" y="135" width="240" height="50" as="geometry" />
        </mxCell>
        <mxCell id="13" style="edgeStyle=orthogonalEdgeStyle;rounded=0;html=1;exitX=1;exitY=0.5;startArrow=none;startFill=0;endArrow=classic;endFill=1;jettySize=auto;orthogonalLoop=1;strokeColor=#000000;strokeWidth=3;fontSize=32;fontColor=#000000;" edge="1" parent="1">
          <mxGeometry relative="1" as="geometry">
            <mxPoint x="590" y="240" as="targetPoint" />
            <mxPoint x="530" y="240" as="sourcePoint" />
          </mxGeometry>
        </mxCell>
        <mxCell id="14" value="Compiles and executes one or two files" style="text;html=1;strokeColor=none;fillColor=none;align=left;verticalAlign=middle;whiteSpace=wrap;rounded=0;shadow=0;labelBackgroundColor=none;fontSize=16;fontColor=#000000;" vertex="1" parent="1">
          <mxGeometry x="600" y="215" width="240" height="50" as="geometry" />
        </mxCell>
        <mxCell id="17" style="edgeStyle=orthogonalEdgeStyle;rounded=0;html=1;exitX=1;exitY=0.5;startArrow=none;startFill=0;endArrow=classic;endFill=1;jettySize=auto;orthogonalLoop=1;strokeColor=#000000;strokeWidth=3;fontSize=32;fontColor=#000000;" edge="1" parent="1">
          <mxGeometry relative="1" as="geometry">
            <mxPoint x="590" y="320" as="targetPoint" />
            <mxPoint x="530" y="320" as="sourcePoint" />
          </mxGeometry>
        </mxCell>
        <mxCell id="18" value="Formats all the code in each file in the current directory" style="text;html=1;strokeColor=none;fillColor=none;align=left;verticalAlign=middle;whiteSpace=wrap;rounded=0;shadow=0;labelBackgroundColor=none;fontSize=16;fontColor=#000000;" vertex="1" parent="1">
          <mxGeometry x="600" y="295" width="240" height="50" as="geometry" />
        </mxCell>
        <mxCell id="19" style="edgeStyle=orthogonalEdgeStyle;rounded=0;html=1;exitX=1;exitY=0.5;startArrow=none;startFill=0;endArrow=classic;endFill=1;jettySize=auto;orthogonalLoop=1;strokeColor=#000000;strokeWidth=3;fontSize=32;fontColor=#000000;" edge="1" parent="1">
          <mxGeometry relative="1" as="geometry">
            <mxPoint x="590" y="400" as="targetPoint" />
            <mxPoint x="530" y="400" as="sourcePoint" />
          </mxGeometry>
        </mxCell>
        <mxCell id="20" value="Compiles and &quot;installs&quot; a package.&amp;nbsp;" style="text;html=1;strokeColor=none;fillColor=none;align=left;verticalAlign=middle;whiteSpace=wrap;rounded=0;shadow=0;labelBackgroundColor=none;fontSize=16;fontColor=#000000;" vertex="1" parent="1">
          <mxGeometry x="600" y="375" width="240" height="50" as="geometry" />
        </mxCell>
        <mxCell id="21" value="go get" style="rounded=0;whiteSpace=wrap;html=1;shadow=0;labelBackgroundColor=none;strokeColor=#080808;strokeWidth=2;fillColor=#ffffff;fontSize=32;fontColor=#000000;align=center;flipV=1;" vertex="1" parent="1">
          <mxGeometry x="330" y="450" width="200" height="60" as="geometry" />
        </mxCell>
        <mxCell id="22" style="edgeStyle=orthogonalEdgeStyle;rounded=0;html=1;exitX=1;exitY=0.5;startArrow=none;startFill=0;endArrow=classic;endFill=1;jettySize=auto;orthogonalLoop=1;strokeColor=#000000;strokeWidth=3;fontSize=32;fontColor=#000000;" edge="1" parent="1">
          <mxGeometry relative="1" as="geometry">
            <mxPoint x="590" y="480" as="targetPoint" />
            <mxPoint x="530" y="480" as="sourcePoint" />
          </mxGeometry>
        </mxCell>
        <mxCell id="23" value="Downloads the raw source code of someone else&#39;s package" style="text;html=1;strokeColor=none;fillColor=none;align=left;verticalAlign=middle;whiteSpace=wrap;rounded=0;shadow=0;labelBackgroundColor=none;fontSize=16;fontColor=#000000;" vertex="1" parent="1">
          <mxGeometry x="600" y="455" width="240" height="50" as="geometry" />
        </mxCell>
        <mxCell id="24" style="edgeStyle=orthogonalEdgeStyle;rounded=0;html=1;exitX=1;exitY=0.5;startArrow=none;startFill=0;endArrow=classic;endFill=1;jettySize=auto;orthogonalLoop=1;strokeColor=#000000;strokeWidth=3;fontSize=32;fontColor=#000000;" edge="1" parent="1">
          <mxGeometry relative="1" as="geometry">
            <mxPoint x="590" y="560" as="targetPoint" />
            <mxPoint x="530" y="560" as="sourcePoint" />
          </mxGeometry>
        </mxCell>
        <mxCell id="25" value="Runs any tests associated with the current project" style="text;html=1;strokeColor=none;fillColor=none;align=left;verticalAlign=middle;whiteSpace=wrap;rounded=0;shadow=0;labelBackgroundColor=none;fontSize=16;fontColor=#000000;" vertex="1" parent="1">
          <mxGeometry x="600" y="535" width="240" height="50" as="geometry" />
        </mxCell>
        <mxCell id="26" style="edgeStyle=orthogonalEdgeStyle;rounded=0;html=1;exitX=0.5;exitY=1;entryX=0.5;entryY=1;startArrow=none;startFill=0;endArrow=classic;endFill=1;jettySize=auto;orthogonalLoop=1;strokeColor=#000000;strokeWidth=3;fontSize=16;fontColor=#000000;" edge="1" parent="1" source="25" target="25">
          <mxGeometry relative="1" as="geometry" />
        </mxCell>
        <mxCell id="27" value="How do we run the code in our project?" style="rounded=0;whiteSpace=wrap;html=1;shadow=0;labelBackgroundColor=none;strokeColor=#6c8ebf;strokeWidth=2;fillColor=#dae8fc;fontSize=22;fontColor=#000000;align=center;" vertex="1" parent="1">
          <mxGeometry x="20" y="85" width="210" height="65" as="geometry" />
        </mxCell>
      </root>
    </mxGraphModel>
  </diagram>
  <diagram name="007 - code" id="flEb9VjzSzztUGKJAj54">
    <mxGraphModel dx="990" dy="431" grid="1" gridSize="10" guides="1" tooltips="1" connect="1" arrows="1" fold="1" page="1" pageScale="1" pageWidth="1100" pageHeight="850" background="#ffffff" math="0" shadow="0">
      <root>
        <mxCell id="0" />
        <mxCell id="1" parent="0" />
        <mxCell id="11" value="" style="rounded=0;whiteSpace=wrap;html=1;shadow=0;labelBackgroundColor=none;strokeColor=#9673a6;strokeWidth=2;fillColor=#e1d5e7;fontSize=32;fontColor=#000000;align=left;" vertex="1" parent="1">
          <mxGeometry x="610" y="319" width="180" height="170" as="geometry" />
        </mxCell>
        <mxCell id="10" value="" style="rounded=0;whiteSpace=wrap;html=1;shadow=0;labelBackgroundColor=none;strokeColor=#82b366;strokeWidth=2;fillColor=#d5e8d4;fontSize=32;fontColor=#000000;align=left;" vertex="1" parent="1">
          <mxGeometry x="610" y="189" width="180" height="130" as="geometry" />
        </mxCell>
        <mxCell id="9" value="" style="rounded=0;whiteSpace=wrap;html=1;shadow=0;labelBackgroundColor=none;strokeColor=#6c8ebf;strokeWidth=2;fillColor=#dae8fc;fontSize=32;fontColor=#000000;align=left;" vertex="1" parent="1">
          <mxGeometry x="610" y="99" width="180" height="90" as="geometry" />
        </mxCell>
        <mxCell id="5" value="" style="rounded=0;whiteSpace=wrap;html=1;shadow=0;labelBackgroundColor=none;strokeColor=#9673a6;strokeWidth=2;fillColor=#e1d5e7;fontSize=32;fontColor=#000000;align=left;" vertex="1" parent="1">
          <mxGeometry x="250" y="319" width="360" height="170" as="geometry" />
        </mxCell>
        <mxCell id="4" value="" style="rounded=0;whiteSpace=wrap;html=1;shadow=0;labelBackgroundColor=none;strokeColor=#82b366;strokeWidth=2;fillColor=#d5e8d4;fontSize=32;fontColor=#000000;align=left;" vertex="1" parent="1">
          <mxGeometry x="250" y="189" width="360" height="130" as="geometry" />
        </mxCell>
        <mxCell id="3" value="" style="rounded=0;whiteSpace=wrap;html=1;shadow=0;labelBackgroundColor=none;strokeColor=#6c8ebf;strokeWidth=2;fillColor=#dae8fc;fontSize=32;fontColor=#000000;align=left;" vertex="1" parent="1">
          <mxGeometry x="250" y="99" width="360" height="90" as="geometry" />
        </mxCell>
        <mxCell id="2" value="&lt;div&gt;package main&lt;/div&gt;&lt;div&gt;&lt;br&gt;&lt;/div&gt;&lt;div&gt;&lt;br&gt;&lt;/div&gt;&lt;div&gt;import &quot;fmt&quot;&lt;/div&gt;&lt;div&gt;&lt;br&gt;&lt;/div&gt;&lt;div&gt;&lt;br&gt;&lt;/div&gt;&lt;div&gt;func main() {&lt;/div&gt;&lt;div&gt;&amp;nbsp; fmt.Println(&quot;hi there&quot;)&lt;/div&gt;&lt;div&gt;}&lt;/div&gt;" style="text;html=1;strokeColor=none;fillColor=none;align=left;verticalAlign=middle;whiteSpace=wrap;rounded=0;shadow=0;labelBackgroundColor=none;fontSize=32;fontColor=#000000;" vertex="1" parent="1">
          <mxGeometry x="266" y="108" width="334" height="370" as="geometry" />
        </mxCell>
        <mxCell id="6" value="&lt;i&gt;Package declaration&lt;/i&gt;" style="text;html=1;strokeColor=none;fillColor=none;align=left;verticalAlign=middle;whiteSpace=wrap;rounded=0;shadow=0;labelBackgroundColor=none;fontSize=16;fontColor=#000000;" vertex="1" parent="1">
          <mxGeometry x="620" y="134" width="40" height="20" as="geometry" />
        </mxCell>
        <mxCell id="7" value="&lt;i&gt;Import other packages that we need&lt;/i&gt;" style="text;html=1;strokeColor=none;fillColor=none;align=left;verticalAlign=middle;whiteSpace=wrap;rounded=0;shadow=0;labelBackgroundColor=none;fontSize=16;fontColor=#000000;" vertex="1" parent="1">
          <mxGeometry x="620" y="222" width="130" height="65" as="geometry" />
        </mxCell>
        <mxCell id="8" value="&lt;i&gt;Declare functions, tell Go to do things&lt;/i&gt;" style="text;html=1;strokeColor=none;fillColor=none;align=left;verticalAlign=middle;whiteSpace=wrap;rounded=0;shadow=0;labelBackgroundColor=none;fontSize=16;fontColor=#000000;" vertex="1" parent="1">
          <mxGeometry x="620" y="372" width="160" height="65" as="geometry" />
        </mxCell>
        <mxCell id="12" value="How is the main.go file organized?" style="rounded=0;whiteSpace=wrap;html=1;shadow=0;labelBackgroundColor=none;strokeColor=#d79b00;strokeWidth=2;fillColor=#ffe6cc;fontSize=22;fontColor=#000000;align=center;" vertex="1" parent="1">
          <mxGeometry x="50" y="89" width="160" height="91" as="geometry" />
        </mxCell>
      </root>
    </mxGraphModel>
  </diagram>
  <diagram name="008 - what package" id="uGnpCS_ORb96Y-gkw3Ux">
    <mxGraphModel dx="825" dy="359" grid="1" gridSize="10" guides="1" tooltips="1" connect="1" arrows="1" fold="1" page="1" pageScale="1" pageWidth="1100" pageHeight="850" background="#ffffff" math="0" shadow="0">
      <root>
        <mxCell id="0" />
        <mxCell id="1" parent="0" />
        <mxCell id="2" value="What does &#39;&lt;i&gt;package main&lt;/i&gt;&#39; mean?" style="rounded=0;whiteSpace=wrap;html=1;shadow=0;labelBackgroundColor=none;strokeColor=#82b366;strokeWidth=2;fillColor=#d5e8d4;fontSize=22;fontColor=#000000;align=center;" vertex="1" parent="1">
          <mxGeometry x="230" y="80" width="170" height="80" as="geometry" />
        </mxCell>
        <mxCell id="5" value="Package" style="rounded=0;whiteSpace=wrap;html=1;shadow=0;labelBackgroundColor=none;strokeColor=#080808;strokeWidth=2;fillColor=#ffffff;fontSize=40;fontColor=#000000;align=center;" vertex="1" parent="1">
          <mxGeometry x="210" y="230" width="210" height="60" as="geometry" />
        </mxCell>
        <mxCell id="6" value="==" style="text;html=1;strokeColor=none;fillColor=none;align=center;verticalAlign=middle;whiteSpace=wrap;rounded=0;shadow=0;labelBackgroundColor=none;fontSize=40;fontColor=#000000;" vertex="1" parent="1">
          <mxGeometry x="440" y="250" width="40" height="20" as="geometry" />
        </mxCell>
        <mxCell id="7" value="Project" style="rounded=0;whiteSpace=wrap;html=1;shadow=0;labelBackgroundColor=none;strokeColor=#080808;strokeWidth=2;fillColor=#ffffff;fontSize=40;fontColor=#000000;align=center;" vertex="1" parent="1">
          <mxGeometry x="500" y="230" width="210" height="60" as="geometry" />
        </mxCell>
        <mxCell id="12" value="==" style="text;html=1;strokeColor=none;fillColor=none;align=center;verticalAlign=middle;whiteSpace=wrap;rounded=0;shadow=0;labelBackgroundColor=none;fontSize=40;fontColor=#000000;" vertex="1" parent="1">
          <mxGeometry x="726" y="250" width="40" height="20" as="geometry" />
        </mxCell>
        <mxCell id="13" value="Workspace" style="rounded=0;whiteSpace=wrap;html=1;shadow=0;labelBackgroundColor=none;strokeColor=#080808;strokeWidth=2;fillColor=#ffffff;fontSize=40;fontColor=#000000;align=center;" vertex="1" parent="1">
          <mxGeometry x="786" y="230" width="210" height="60" as="geometry" />
        </mxCell>
      </root>
    </mxGraphModel>
  </diagram>
  <diagram name="014 - packages" id="RSjh7JBPNSOiHNS1j1gA">
    <mxGraphModel dx="990" dy="431" grid="1" gridSize="10" guides="1" tooltips="1" connect="1" arrows="1" fold="1" page="1" pageScale="1" pageWidth="1100" pageHeight="850" background="#ffffff" math="0" shadow="0">
      <root>
        <mxCell id="0" />
        <mxCell id="1" parent="0" />
        <mxCell id="5" value="" style="rounded=0;whiteSpace=wrap;html=1;shadow=0;labelBackgroundColor=none;strokeColor=#080808;strokeWidth=2;fillColor=#ffffff;fontSize=24;fontColor=#000000;align=center;" vertex="1" parent="1">
          <mxGeometry x="380" y="170" width="370" height="340" as="geometry" />
        </mxCell>
        <mxCell id="2" value="" style="rounded=0;whiteSpace=wrap;html=1;shadow=0;labelBackgroundColor=none;strokeColor=#080808;strokeWidth=2;fillColor=#ffffff;fontSize=24;fontColor=#000000;align=center;" vertex="1" parent="1">
          <mxGeometry x="400" y="216" width="150" height="120" as="geometry" />
        </mxCell>
        <mxCell id="6" value="Package Main" style="text;html=1;strokeColor=none;fillColor=none;align=center;verticalAlign=middle;whiteSpace=wrap;rounded=0;shadow=0;labelBackgroundColor=none;fontSize=32;fontColor=#000000;" vertex="1" parent="1">
          <mxGeometry x="445" y="130" width="230" height="30" as="geometry" />
        </mxCell>
        <mxCell id="8" value="What does &#39;&lt;i&gt;package main&lt;/i&gt;&#39; mean?" style="rounded=0;whiteSpace=wrap;html=1;shadow=0;labelBackgroundColor=none;strokeColor=#82b366;strokeWidth=2;fillColor=#d5e8d4;fontSize=22;fontColor=#000000;align=center;" vertex="1" parent="1">
          <mxGeometry x="140" y="145" width="170" height="80" as="geometry" />
        </mxCell>
        <mxCell id="9" value="main.go" style="text;html=1;strokeColor=none;fillColor=none;align=center;verticalAlign=middle;whiteSpace=wrap;rounded=0;shadow=0;labelBackgroundColor=none;fontSize=22;fontColor=#000000;" vertex="1" parent="1">
          <mxGeometry x="420" y="190" width="40" height="20" as="geometry" />
        </mxCell>
        <mxCell id="10" value="&lt;div&gt;&lt;div&gt;&lt;span&gt;package&lt;/span&gt; main&lt;/div&gt;&lt;br&gt;&lt;div&gt;&lt;span&gt;import&lt;/span&gt;&lt;span&gt;&quot;fmt&quot;&lt;/span&gt;&lt;/div&gt;&lt;br&gt;&lt;div&gt;&lt;span&gt;func&lt;/span&gt;&lt;span&gt;main&lt;/span&gt;() {&lt;/div&gt;&lt;div&gt;&amp;nbsp;&amp;nbsp;&amp;nbsp;&amp;nbsp;fmt.&lt;span&gt;Println&lt;/span&gt;(&lt;span&gt;&quot;Hi there!&quot;&lt;/span&gt;)&lt;/div&gt;&lt;div&gt;}&lt;/div&gt;&lt;br&gt;&lt;/div&gt;" style="text;html=1;strokeColor=none;fillColor=none;align=left;verticalAlign=middle;whiteSpace=wrap;rounded=0;shadow=0;labelBackgroundColor=none;fontSize=12;fontColor=#000000;" vertex="1" parent="1">
          <mxGeometry x="405" y="223" width="130" height="116" as="geometry" />
        </mxCell>
        <mxCell id="11" value="" style="rounded=0;whiteSpace=wrap;html=1;shadow=0;labelBackgroundColor=none;strokeColor=#080808;strokeWidth=2;fillColor=#ffffff;fontSize=24;fontColor=#000000;align=center;" vertex="1" parent="1">
          <mxGeometry x="580" y="216" width="150" height="120" as="geometry" />
        </mxCell>
        <mxCell id="12" value="&lt;div style=&quot;text-align: left&quot;&gt;&lt;span&gt;support.go&lt;/span&gt;&lt;/div&gt;" style="text;html=1;strokeColor=none;fillColor=none;align=center;verticalAlign=middle;whiteSpace=wrap;rounded=0;shadow=0;labelBackgroundColor=none;fontSize=22;fontColor=#000000;" vertex="1" parent="1">
          <mxGeometry x="585" y="190" width="110" height="20" as="geometry" />
        </mxCell>
        <mxCell id="13" value="&lt;div&gt;&lt;span&gt;package&lt;/span&gt; main&lt;/div&gt;&lt;div&gt;&lt;br&gt;&lt;/div&gt;&lt;div&gt;&lt;span&gt;func&amp;nbsp;&lt;/span&gt;&lt;span&gt;support&lt;/span&gt;() {&lt;/div&gt;&lt;div&gt;&amp;nbsp;&amp;nbsp;&amp;nbsp;&amp;nbsp;fmt.&lt;span&gt;Println&lt;/span&gt;(&lt;span&gt;&quot;I help!&quot;&lt;/span&gt;)&lt;/div&gt;&lt;div&gt;}&lt;/div&gt;&lt;br&gt;" style="text;html=1;strokeColor=none;fillColor=none;align=left;verticalAlign=middle;whiteSpace=wrap;rounded=0;shadow=0;labelBackgroundColor=none;fontSize=12;fontColor=#000000;" vertex="1" parent="1">
          <mxGeometry x="583" y="214" width="185" height="92" as="geometry" />
        </mxCell>
        <mxCell id="14" value="" style="rounded=0;whiteSpace=wrap;html=1;shadow=0;labelBackgroundColor=none;strokeColor=#080808;strokeWidth=2;fillColor=#ffffff;fontSize=24;fontColor=#000000;align=center;" vertex="1" parent="1">
          <mxGeometry x="400" y="377" width="150" height="120" as="geometry" />
        </mxCell>
        <mxCell id="15" value="helper.go" style="text;html=1;strokeColor=none;fillColor=none;align=center;verticalAlign=middle;whiteSpace=wrap;rounded=0;shadow=0;labelBackgroundColor=none;fontSize=22;fontColor=#000000;" vertex="1" parent="1">
          <mxGeometry x="424" y="351" width="40" height="20" as="geometry" />
        </mxCell>
        <mxCell id="16" value="&lt;div&gt;&lt;span&gt;package&lt;/span&gt; main&lt;/div&gt;&lt;br&gt;&lt;div&gt;&lt;span&gt;func&amp;nbsp;&lt;/span&gt;&lt;span&gt;help&lt;/span&gt;() {&lt;/div&gt;&lt;div&gt;&amp;nbsp;&amp;nbsp;&amp;nbsp;&amp;nbsp;fmt.&lt;span&gt;Println&lt;/span&gt;(&lt;span&gt;&quot;I help too&quot;&lt;/span&gt;)&lt;/div&gt;&lt;div&gt;}&lt;/div&gt;&lt;br&gt;" style="text;html=1;strokeColor=none;fillColor=none;align=left;verticalAlign=middle;whiteSpace=wrap;rounded=0;shadow=0;labelBackgroundColor=none;fontSize=12;fontColor=#000000;" vertex="1" parent="1">
          <mxGeometry x="405" y="384" width="175" height="86" as="geometry" />
        </mxCell>
      </root>
    </mxGraphModel>
  </diagram>
  <diagram name="012 - types of packages" id="rT6rp3jV2Ax3QlkP5-D-">
    <mxGraphModel dx="825" dy="359" grid="1" gridSize="10" guides="1" tooltips="1" connect="1" arrows="1" fold="1" page="1" pageScale="1" pageWidth="1100" pageHeight="850" background="#ffffff" math="0" shadow="0">
      <root>
        <mxCell id="0" />
        <mxCell id="1" parent="0" />
        <mxCell id="2" value="Executable" style="rounded=0;whiteSpace=wrap;html=1;shadow=0;labelBackgroundColor=none;strokeColor=#080808;strokeWidth=2;fillColor=#ffffff;fontSize=24;fontColor=#000000;align=center;" vertex="1" parent="1">
          <mxGeometry x="360" y="225" width="160" height="60" as="geometry" />
        </mxCell>
        <mxCell id="3" value="Reusable" style="rounded=0;whiteSpace=wrap;html=1;shadow=0;labelBackgroundColor=none;strokeColor=#080808;strokeWidth=2;fillColor=#ffffff;fontSize=24;fontColor=#000000;align=center;" vertex="1" parent="1">
          <mxGeometry x="600" y="225" width="160" height="60" as="geometry" />
        </mxCell>
        <mxCell id="4" value="Generates a file that we can run" style="text;html=1;strokeColor=none;fillColor=none;align=center;verticalAlign=middle;whiteSpace=wrap;rounded=0;shadow=0;labelBackgroundColor=none;fontSize=14;fontColor=#000000;" vertex="1" parent="1">
          <mxGeometry x="385" y="285" width="110" height="40" as="geometry" />
        </mxCell>
        <mxCell id="5" value="Types of Packages" style="text;html=1;strokeColor=none;fillColor=none;align=center;verticalAlign=middle;whiteSpace=wrap;rounded=0;shadow=0;labelBackgroundColor=none;fontSize=24;fontColor=#000000;" vertex="1" parent="1">
          <mxGeometry x="430" y="165" width="250" height="40" as="geometry" />
        </mxCell>
        <mxCell id="6" value="Code used as &#39;helpers&#39;. &amp;nbsp;Good place to put reusable logic" style="text;html=1;strokeColor=none;fillColor=none;align=center;verticalAlign=middle;whiteSpace=wrap;rounded=0;shadow=0;labelBackgroundColor=none;fontSize=14;fontColor=#000000;" vertex="1" parent="1">
          <mxGeometry x="588" y="295" width="185" height="40" as="geometry" />
        </mxCell>
        <mxCell id="7" value="What does &#39;&lt;i&gt;package main&lt;/i&gt;&#39; mean?" style="rounded=0;whiteSpace=wrap;html=1;shadow=0;labelBackgroundColor=none;strokeColor=#82b366;strokeWidth=2;fillColor=#d5e8d4;fontSize=22;fontColor=#000000;align=center;" vertex="1" parent="1">
          <mxGeometry x="150" y="80" width="170" height="80" as="geometry" />
        </mxCell>
      </root>
    </mxGraphModel>
  </diagram>
  <diagram name="013 - compiling" id="2xw_a5x_zNF4GZj5FNk3">
    <mxGraphModel dx="825" dy="359" grid="1" gridSize="10" guides="1" tooltips="1" connect="1" arrows="1" fold="1" page="1" pageScale="1" pageWidth="1100" pageHeight="850" background="#ffffff" math="0" shadow="0">
      <root>
        <mxCell id="0" />
        <mxCell id="1" parent="0" />
        <mxCell id="10" style="edgeStyle=orthogonalEdgeStyle;rounded=0;html=1;exitX=0.5;exitY=1;entryX=0.5;entryY=0;startArrow=none;startFill=0;endArrow=classic;endFill=1;jettySize=auto;orthogonalLoop=1;strokeColor=#000000;strokeWidth=3;fontSize=24;fontColor=#000000;" edge="1" parent="1" source="8" target="9">
          <mxGeometry relative="1" as="geometry" />
        </mxCell>
        <mxCell id="8" value="package main" style="rounded=0;whiteSpace=wrap;html=1;shadow=0;labelBackgroundColor=none;strokeColor=#080808;strokeWidth=2;fillColor=#ffffff;fontSize=24;fontColor=#000000;align=center;" vertex="1" parent="1">
          <mxGeometry x="460" y="90" width="180" height="60" as="geometry" />
        </mxCell>
        <mxCell id="12" style="edgeStyle=orthogonalEdgeStyle;rounded=0;html=1;exitX=0.5;exitY=1;entryX=0.5;entryY=0;startArrow=none;startFill=0;endArrow=classic;endFill=1;jettySize=auto;orthogonalLoop=1;strokeColor=#000000;strokeWidth=3;fontSize=24;fontColor=#000000;" edge="1" parent="1" source="9" target="11">
          <mxGeometry relative="1" as="geometry" />
        </mxCell>
        <mxCell id="9" value="go build" style="rounded=0;whiteSpace=wrap;html=1;shadow=0;labelBackgroundColor=none;strokeColor=#080808;strokeWidth=2;fillColor=#ffffff;fontSize=24;fontColor=#000000;align=center;" vertex="1" parent="1">
          <mxGeometry x="415" y="200" width="270" height="90" as="geometry" />
        </mxCell>
        <mxCell id="11" value="main.exe" style="rounded=0;whiteSpace=wrap;html=1;shadow=0;labelBackgroundColor=none;strokeColor=#080808;strokeWidth=2;fillColor=#ffffff;fontSize=24;fontColor=#000000;align=center;" vertex="1" parent="1">
          <mxGeometry x="490" y="350" width="120" height="60" as="geometry" />
        </mxCell>
        <mxCell id="13" value="If we ran this file, the function named &#39;main&#39; would be automatically ran" style="text;html=1;strokeColor=none;fillColor=none;align=left;verticalAlign=middle;whiteSpace=wrap;rounded=0;shadow=0;labelBackgroundColor=none;fontSize=12;fontColor=#000000;fontStyle=2" vertex="1" parent="1">
          <mxGeometry x="620" y="370" width="150" height="20" as="geometry" />
        </mxCell>
        <mxCell id="14" value="What does &#39;&lt;i&gt;package main&lt;/i&gt;&#39; mean?" style="rounded=0;whiteSpace=wrap;html=1;shadow=0;labelBackgroundColor=none;strokeColor=#82b366;strokeWidth=2;fillColor=#d5e8d4;fontSize=22;fontColor=#000000;align=center;" vertex="1" parent="1">
          <mxGeometry x="190" y="90" width="170" height="80" as="geometry" />
        </mxCell>
      </root>
    </mxGraphModel>
  </diagram>
  <diagram name="013.5 - reusable" id="w4QBJ3ylQHL0vDsKIS_W">
    <mxGraphModel dx="825" dy="359" grid="1" gridSize="10" guides="1" tooltips="1" connect="1" arrows="1" fold="1" page="1" pageScale="1" pageWidth="1100" pageHeight="850" background="#ffffff" math="0" shadow="0">
      <root>
        <mxCell id="0" />
        <mxCell id="1" parent="0" />
        <mxCell id="2" style="edgeStyle=orthogonalEdgeStyle;rounded=0;html=1;exitX=0.5;exitY=1;entryX=0.5;entryY=0;startArrow=none;startFill=0;endArrow=classic;endFill=1;jettySize=auto;orthogonalLoop=1;strokeColor=#000000;strokeWidth=3;fontSize=24;fontColor=#000000;" edge="1" parent="1" source="3" target="5">
          <mxGeometry relative="1" as="geometry" />
        </mxCell>
        <mxCell id="3" value="package blahblah" style="rounded=0;whiteSpace=wrap;html=1;shadow=0;labelBackgroundColor=none;strokeColor=#080808;strokeWidth=2;fillColor=#ffffff;fontSize=24;fontColor=#000000;align=center;" vertex="1" parent="1">
          <mxGeometry x="430" y="90" width="240" height="60" as="geometry" />
        </mxCell>
        <mxCell id="4" style="edgeStyle=orthogonalEdgeStyle;rounded=0;html=1;exitX=0.5;exitY=1;entryX=0.5;entryY=0;startArrow=none;startFill=0;endArrow=classic;endFill=1;jettySize=auto;orthogonalLoop=1;strokeColor=#000000;strokeWidth=3;fontSize=24;fontColor=#000000;" edge="1" parent="1" source="5" target="6">
          <mxGeometry relative="1" as="geometry" />
        </mxCell>
        <mxCell id="5" value="go build" style="rounded=0;whiteSpace=wrap;html=1;shadow=0;labelBackgroundColor=none;strokeColor=#080808;strokeWidth=2;fillColor=#ffffff;fontSize=24;fontColor=#000000;align=center;" vertex="1" parent="1">
          <mxGeometry x="415" y="200" width="270" height="90" as="geometry" />
        </mxCell>
        <mxCell id="6" value="nothing!" style="rounded=0;whiteSpace=wrap;html=1;shadow=0;labelBackgroundColor=none;strokeColor=#080808;strokeWidth=2;fillColor=#ffffff;fontSize=24;fontColor=#000000;align=center;" vertex="1" parent="1">
          <mxGeometry x="490" y="350" width="120" height="60" as="geometry" />
        </mxCell>
        <mxCell id="7" value="Compiling a non-main package gives" style="text;html=1;strokeColor=none;fillColor=none;align=left;verticalAlign=middle;whiteSpace=wrap;rounded=0;shadow=0;labelBackgroundColor=none;fontSize=12;fontColor=#000000;fontStyle=2" vertex="1" parent="1">
          <mxGeometry x="620" y="370" width="150" height="20" as="geometry" />
        </mxCell>
        <mxCell id="8" value="What does &#39;&lt;i&gt;package main&lt;/i&gt;&#39; mean?" style="rounded=0;whiteSpace=wrap;html=1;shadow=0;labelBackgroundColor=none;strokeColor=#82b366;strokeWidth=2;fillColor=#d5e8d4;fontSize=22;fontColor=#000000;align=center;" vertex="1" parent="1">
          <mxGeometry x="170" y="80" width="170" height="80" as="geometry" />
        </mxCell>
      </root>
    </mxGraphModel>
  </diagram>
  <diagram name="008 - packages" id="axyIOm7Dz6xrlxNA4-5n">
    <mxGraphModel dx="990" dy="431" grid="1" gridSize="10" guides="1" tooltips="1" connect="1" arrows="1" fold="1" page="1" pageScale="1" pageWidth="1100" pageHeight="850" background="#ffffff" math="0" shadow="0">
      <root>
        <mxCell id="0" />
        <mxCell id="1" parent="0" />
        <mxCell id="27" style="edgeStyle=orthogonalEdgeStyle;rounded=0;html=1;exitX=1;exitY=0.5;startArrow=none;startFill=0;endArrow=classic;endFill=1;jettySize=auto;orthogonalLoop=1;strokeColor=#000000;strokeWidth=3;fontSize=22;fontColor=#000000;" edge="1" parent="1" source="23">
          <mxGeometry relative="1" as="geometry">
            <mxPoint x="550" y="230" as="targetPoint" />
          </mxGeometry>
        </mxCell>
        <mxCell id="23" value="package main" style="rounded=0;whiteSpace=wrap;html=1;shadow=0;labelBackgroundColor=none;strokeColor=#6c8ebf;strokeWidth=2;fillColor=#dae8fc;fontSize=22;fontColor=#000000;align=center;flipV=1;" vertex="1" parent="1">
          <mxGeometry x="280" y="200" width="210" height="60" as="geometry" />
        </mxCell>
        <mxCell id="25" value="package calculator" style="rounded=0;whiteSpace=wrap;html=1;shadow=0;labelBackgroundColor=none;strokeColor=#080808;strokeWidth=2;fillColor=#ffffff;fontSize=22;fontColor=#000000;align=center;flipV=1;" vertex="1" parent="1">
          <mxGeometry x="280" y="330" width="210" height="60" as="geometry" />
        </mxCell>
        <mxCell id="26" value="package uploader" style="rounded=0;whiteSpace=wrap;html=1;shadow=0;labelBackgroundColor=none;strokeColor=#080808;strokeWidth=2;fillColor=#ffffff;fontSize=22;fontColor=#000000;align=center;flipV=1;" vertex="1" parent="1">
          <mxGeometry x="280" y="470" width="210" height="60" as="geometry" />
        </mxCell>
        <mxCell id="28" value="Defines a package that can be compiled and then *executed*. &lt;b&gt;Must have a func called &#39;main&#39;&lt;/b&gt;" style="text;html=1;strokeColor=none;fillColor=none;align=left;verticalAlign=middle;whiteSpace=wrap;rounded=0;shadow=0;labelBackgroundColor=none;fontSize=22;fontColor=#000000;" vertex="1" parent="1">
          <mxGeometry x="560" y="190" width="330" height="80" as="geometry" />
        </mxCell>
        <mxCell id="29" style="edgeStyle=orthogonalEdgeStyle;rounded=0;html=1;exitX=1;exitY=0.5;startArrow=none;startFill=0;endArrow=classic;endFill=1;jettySize=auto;orthogonalLoop=1;strokeColor=#000000;strokeWidth=3;fontSize=22;fontColor=#000000;" edge="1" parent="1">
          <mxGeometry relative="1" as="geometry">
            <mxPoint x="550" y="360" as="targetPoint" />
            <mxPoint x="490" y="360" as="sourcePoint" />
          </mxGeometry>
        </mxCell>
        <mxCell id="30" value="Defines a package that can be used as a dependency (helper code)" style="text;html=1;strokeColor=none;fillColor=none;align=left;verticalAlign=middle;whiteSpace=wrap;rounded=0;shadow=0;labelBackgroundColor=none;fontSize=22;fontColor=#000000;" vertex="1" parent="1">
          <mxGeometry x="560" y="320" width="350" height="80" as="geometry" />
        </mxCell>
        <mxCell id="33" style="edgeStyle=orthogonalEdgeStyle;rounded=0;html=1;exitX=1;exitY=0.5;startArrow=none;startFill=0;endArrow=classic;endFill=1;jettySize=auto;orthogonalLoop=1;strokeColor=#000000;strokeWidth=3;fontSize=22;fontColor=#000000;" edge="1" parent="1">
          <mxGeometry relative="1" as="geometry">
            <mxPoint x="550" y="500" as="targetPoint" />
            <mxPoint x="490" y="500" as="sourcePoint" />
          </mxGeometry>
        </mxCell>
        <mxCell id="34" value="Defines a package that can be used as a dependency (helper code)" style="text;html=1;strokeColor=none;fillColor=none;align=left;verticalAlign=middle;whiteSpace=wrap;rounded=0;shadow=0;labelBackgroundColor=none;fontSize=22;fontColor=#000000;" vertex="1" parent="1">
          <mxGeometry x="560" y="460" width="350" height="80" as="geometry" />
        </mxCell>
        <mxCell id="35" value="&quot;main&quot; is special" style="text;html=1;strokeColor=none;fillColor=none;align=center;verticalAlign=middle;whiteSpace=wrap;rounded=0;shadow=0;labelBackgroundColor=none;fontSize=16;fontColor=#000000;fontStyle=2" vertex="1" parent="1">
          <mxGeometry x="300" y="248" width="170" height="50" as="geometry" />
        </mxCell>
        <mxCell id="36" value="" style="shape=curlyBracket;whiteSpace=wrap;html=1;rounded=1;shadow=0;labelBackgroundColor=none;strokeColor=#080808;strokeWidth=2;fillColor=#ffffff;fontSize=24;fontColor=#000000;align=center;" vertex="1" parent="1">
          <mxGeometry x="220" y="200" width="50" height="60" as="geometry" />
        </mxCell>
        <mxCell id="37" value="Executable package" style="text;html=1;strokeColor=none;fillColor=none;align=right;verticalAlign=middle;whiteSpace=wrap;rounded=0;shadow=0;labelBackgroundColor=none;fontSize=14;fontColor=#000000;" vertex="1" parent="1">
          <mxGeometry x="180" y="220" width="40" height="20" as="geometry" />
        </mxCell>
        <mxCell id="38" value="" style="shape=curlyBracket;whiteSpace=wrap;html=1;rounded=1;shadow=0;labelBackgroundColor=none;strokeColor=#080808;strokeWidth=2;fillColor=#ffffff;fontSize=24;fontColor=#000000;align=center;" vertex="1" parent="1">
          <mxGeometry x="220" y="330" width="50" height="200" as="geometry" />
        </mxCell>
        <mxCell id="39" value="Reusable package" style="text;html=1;strokeColor=none;fillColor=none;align=right;verticalAlign=middle;whiteSpace=wrap;rounded=0;shadow=0;labelBackgroundColor=none;fontSize=14;fontColor=#000000;" vertex="1" parent="1">
          <mxGeometry x="130" y="415" width="90" height="30" as="geometry" />
        </mxCell>
        <mxCell id="40" style="edgeStyle=orthogonalEdgeStyle;rounded=0;html=1;exitX=0.5;exitY=0;entryX=0.5;entryY=0;startArrow=none;startFill=0;endArrow=classic;endFill=1;jettySize=auto;orthogonalLoop=1;strokeColor=#000000;strokeWidth=3;fontSize=14;fontColor=#000000;" edge="1" parent="1" source="39" target="39">
          <mxGeometry relative="1" as="geometry" />
        </mxCell>
        <mxCell id="41" value="What does &#39;&lt;i&gt;package main&lt;/i&gt;&#39; mean?" style="rounded=0;whiteSpace=wrap;html=1;shadow=0;labelBackgroundColor=none;strokeColor=#82b366;strokeWidth=2;fillColor=#d5e8d4;fontSize=12;fontColor=#000000;align=center;" vertex="1" parent="1">
          <mxGeometry x="90" y="140" width="200" height="30" as="geometry" />
        </mxCell>
      </root>
    </mxGraphModel>
  </diagram>
  <diagram name="009 - imports" id="eyHj0Yq9ixacDgIs1KhR">
    <mxGraphModel dx="825" dy="359" grid="1" gridSize="10" guides="1" tooltips="1" connect="1" arrows="1" fold="1" page="1" pageScale="1" pageWidth="1100" pageHeight="850" background="#ffffff" math="0" shadow="0">
      <root>
        <mxCell id="0" />
        <mxCell id="1" parent="0" />
        <mxCell id="4" style="edgeStyle=orthogonalEdgeStyle;rounded=0;html=1;exitX=0.5;exitY=1;startArrow=none;startFill=0;endArrow=classic;endFill=1;jettySize=auto;orthogonalLoop=1;strokeColor=#000000;strokeWidth=3;fontSize=22;fontColor=#000000;" edge="1" parent="1" source="2" target="3">
          <mxGeometry relative="1" as="geometry" />
        </mxCell>
        <mxCell id="2" value="main" style="rounded=0;whiteSpace=wrap;html=1;shadow=0;labelBackgroundColor=none;strokeColor=#080808;strokeWidth=2;fillColor=#ffffff;fontSize=22;fontColor=#000000;align=center;" vertex="1" parent="1">
          <mxGeometry x="470" y="180" width="120" height="60" as="geometry" />
        </mxCell>
        <mxCell id="3" value="fmt" style="rounded=0;whiteSpace=wrap;html=1;shadow=0;labelBackgroundColor=none;strokeColor=#080808;strokeWidth=2;fillColor=#ffffff;fontSize=22;fontColor=#000000;align=center;" vertex="1" parent="1">
          <mxGeometry x="470" y="300" width="120" height="60" as="geometry" />
        </mxCell>
        <mxCell id="5" value="What does &#39;&lt;i&gt;import &quot;fmt&quot;&lt;/i&gt;&#39; mean?" style="rounded=0;whiteSpace=wrap;html=1;shadow=0;labelBackgroundColor=none;strokeColor=#b85450;strokeWidth=2;fillColor=#f8cecc;fontSize=12;fontColor=#000000;align=center;" vertex="1" parent="1">
          <mxGeometry x="190" y="120" width="200" height="40" as="geometry" />
        </mxCell>
        <mxCell id="6" value="Package from standard lib" style="text;html=1;strokeColor=none;fillColor=none;align=center;verticalAlign=middle;whiteSpace=wrap;rounded=0;shadow=0;labelBackgroundColor=none;fontSize=16;fontColor=#000000;fontStyle=2" vertex="1" parent="1">
          <mxGeometry x="455" y="370" width="150" height="30" as="geometry" />
        </mxCell>
      </root>
    </mxGraphModel>
  </diagram>
  <diagram name="010 - many imports" id="DHX2gT_4BChKDZybSpP4">
    <mxGraphModel dx="825" dy="359" grid="1" gridSize="10" guides="1" tooltips="1" connect="1" arrows="1" fold="1" page="1" pageScale="1" pageWidth="1100" pageHeight="850" background="#ffffff" math="0" shadow="0">
      <root>
        <mxCell id="0" />
        <mxCell id="1" parent="0" />
        <mxCell id="5" style="edgeStyle=orthogonalEdgeStyle;rounded=0;html=1;exitX=0.25;exitY=1;entryX=0.5;entryY=0;startArrow=none;startFill=0;endArrow=classic;endFill=1;jettySize=auto;orthogonalLoop=1;strokeColor=#000000;strokeWidth=3;fontSize=22;fontColor=#000000;" edge="1" parent="1" source="2" target="4">
          <mxGeometry relative="1" as="geometry" />
        </mxCell>
        <mxCell id="7" style="edgeStyle=orthogonalEdgeStyle;rounded=0;html=1;exitX=0.5;exitY=1;entryX=0.5;entryY=0;startArrow=none;startFill=0;endArrow=classic;endFill=1;jettySize=auto;orthogonalLoop=1;strokeColor=#000000;strokeWidth=3;fontSize=22;fontColor=#000000;" edge="1" parent="1" source="2" target="6">
          <mxGeometry relative="1" as="geometry" />
        </mxCell>
        <mxCell id="9" style="edgeStyle=orthogonalEdgeStyle;rounded=0;html=1;exitX=0.75;exitY=1;entryX=0.5;entryY=0;startArrow=none;startFill=0;endArrow=classic;endFill=1;jettySize=auto;orthogonalLoop=1;strokeColor=#000000;strokeWidth=3;fontSize=22;fontColor=#000000;" edge="1" parent="1" source="2" target="8">
          <mxGeometry relative="1" as="geometry" />
        </mxCell>
        <mxCell id="2" value="main" style="rounded=0;whiteSpace=wrap;html=1;shadow=0;labelBackgroundColor=none;strokeColor=#080808;strokeWidth=2;fillColor=#ffffff;fontSize=22;fontColor=#000000;align=center;" vertex="1" parent="1">
          <mxGeometry x="470" y="130" width="120" height="60" as="geometry" />
        </mxCell>
        <mxCell id="4" value="fmt" style="rounded=0;whiteSpace=wrap;html=1;shadow=0;labelBackgroundColor=none;strokeColor=#080808;strokeWidth=2;fillColor=#ffffff;fontSize=22;fontColor=#000000;align=center;" vertex="1" parent="1">
          <mxGeometry x="340" y="250" width="120" height="60" as="geometry" />
        </mxCell>
        <mxCell id="6" value="calculator" style="rounded=0;whiteSpace=wrap;html=1;shadow=0;labelBackgroundColor=none;strokeColor=#080808;strokeWidth=2;fillColor=#ffffff;fontSize=22;fontColor=#000000;align=center;" vertex="1" parent="1">
          <mxGeometry x="470" y="250" width="120" height="60" as="geometry" />
        </mxCell>
        <mxCell id="8" value="uploader" style="rounded=0;whiteSpace=wrap;html=1;shadow=0;labelBackgroundColor=none;strokeColor=#080808;strokeWidth=2;fillColor=#ffffff;fontSize=22;fontColor=#000000;align=center;" vertex="1" parent="1">
          <mxGeometry x="600" y="250" width="120" height="60" as="geometry" />
        </mxCell>
        <mxCell id="10" value="Standard lib" style="text;html=1;strokeColor=none;fillColor=none;align=center;verticalAlign=middle;whiteSpace=wrap;rounded=0;shadow=0;labelBackgroundColor=none;fontSize=16;fontColor=#000000;fontStyle=2" vertex="1" parent="1">
          <mxGeometry x="350" y="320" width="100" height="20" as="geometry" />
        </mxCell>
        <mxCell id="11" value="Reusable package" style="text;html=1;strokeColor=none;fillColor=none;align=center;verticalAlign=middle;whiteSpace=wrap;rounded=0;shadow=0;labelBackgroundColor=none;fontSize=16;fontColor=#000000;fontStyle=2" vertex="1" parent="1">
          <mxGeometry x="480" y="320" width="100" height="20" as="geometry" />
        </mxCell>
        <mxCell id="12" value="Reusable package" style="text;html=1;strokeColor=none;fillColor=none;align=center;verticalAlign=middle;whiteSpace=wrap;rounded=0;shadow=0;labelBackgroundColor=none;fontSize=16;fontColor=#000000;fontStyle=2" vertex="1" parent="1">
          <mxGeometry x="610" y="320" width="100" height="20" as="geometry" />
        </mxCell>
        <mxCell id="13" value="What does &#39;&lt;i&gt;import &quot;fmt&quot;&lt;/i&gt;&#39; mean?" style="rounded=0;whiteSpace=wrap;html=1;shadow=0;labelBackgroundColor=none;strokeColor=#b85450;strokeWidth=2;fillColor=#f8cecc;fontSize=12;fontColor=#000000;align=center;" vertex="1" parent="1">
          <mxGeometry x="170" y="70" width="200" height="40" as="geometry" />
        </mxCell>
      </root>
    </mxGraphModel>
  </diagram>
  <diagram name="016 - silos" id="mRv2GBPTmPsXfCQL4f0q">
    <mxGraphModel dx="1238" dy="539" grid="1" gridSize="10" guides="1" tooltips="1" connect="1" arrows="1" fold="1" page="1" pageScale="1" pageWidth="1100" pageHeight="850" background="#ffffff" math="0" shadow="0">
      <root>
        <mxCell id="0" />
        <mxCell id="1" parent="0" />
        <mxCell id="12" style="edgeStyle=orthogonalEdgeStyle;rounded=0;html=1;exitX=0;exitY=0.5;entryX=0.5;entryY=0;startArrow=none;startFill=0;endArrow=classic;endFill=1;jettySize=auto;orthogonalLoop=1;strokeColor=#000000;strokeWidth=3;fontSize=70;fontColor=#000000;" edge="1" parent="1" source="2" target="3">
          <mxGeometry relative="1" as="geometry" />
        </mxCell>
        <mxCell id="13" style="edgeStyle=orthogonalEdgeStyle;rounded=0;html=1;exitX=0.5;exitY=0;entryX=0.5;entryY=1;startArrow=none;startFill=0;endArrow=classic;endFill=1;jettySize=auto;orthogonalLoop=1;strokeColor=#000000;strokeWidth=3;fontSize=70;fontColor=#000000;" edge="1" parent="1" source="2" target="8">
          <mxGeometry relative="1" as="geometry" />
        </mxCell>
        <mxCell id="2" value="main" style="rounded=0;whiteSpace=wrap;html=1;shadow=0;labelBackgroundColor=none;strokeColor=#080808;strokeWidth=2;fillColor=#ffffff;fontSize=32;fontColor=#000000;align=center;" vertex="1" parent="1">
          <mxGeometry x="480" y="410" width="120" height="60" as="geometry" />
        </mxCell>
        <mxCell id="3" value="fmt" style="rounded=0;whiteSpace=wrap;html=1;shadow=0;labelBackgroundColor=none;strokeColor=#080808;strokeWidth=2;fillColor=#ffffff;fontSize=32;fontColor=#000000;align=center;" vertex="1" parent="1">
          <mxGeometry x="340" y="490" width="120" height="60" as="geometry" />
        </mxCell>
        <mxCell id="4" value="crypto" style="rounded=0;whiteSpace=wrap;html=1;shadow=0;labelBackgroundColor=none;strokeColor=#080808;strokeWidth=2;fillColor=#ffffff;fontSize=32;fontColor=#000000;align=center;" vertex="1" parent="1">
          <mxGeometry x="640" y="480" width="120" height="60" as="geometry" />
        </mxCell>
        <mxCell id="5" value="debug" style="rounded=0;whiteSpace=wrap;html=1;shadow=0;labelBackgroundColor=none;strokeColor=#080808;strokeWidth=2;fillColor=#ffffff;fontSize=32;fontColor=#000000;align=center;" vertex="1" parent="1">
          <mxGeometry x="320" y="310" width="120" height="60" as="geometry" />
        </mxCell>
        <mxCell id="6" value="encoding" style="rounded=0;whiteSpace=wrap;html=1;shadow=0;labelBackgroundColor=none;strokeColor=#080808;strokeWidth=2;fillColor=#ffffff;fontSize=32;fontColor=#000000;align=center;" vertex="1" parent="1">
          <mxGeometry x="700" y="330" width="140" height="60" as="geometry" />
        </mxCell>
        <mxCell id="7" value="io" style="rounded=0;whiteSpace=wrap;html=1;shadow=0;labelBackgroundColor=none;strokeColor=#080808;strokeWidth=2;fillColor=#ffffff;fontSize=32;fontColor=#000000;align=center;" vertex="1" parent="1">
          <mxGeometry x="520" y="590" width="140" height="60" as="geometry" />
        </mxCell>
        <mxCell id="8" value="math" style="rounded=0;whiteSpace=wrap;html=1;shadow=0;labelBackgroundColor=none;strokeColor=#080808;strokeWidth=2;fillColor=#ffffff;fontSize=32;fontColor=#000000;align=center;" vertex="1" parent="1">
          <mxGeometry x="540" y="270" width="140" height="60" as="geometry" />
        </mxCell>
        <mxCell id="11" value="What does &#39;&lt;i&gt;import &quot;fmt&quot;&lt;/i&gt;&#39; mean?" style="rounded=0;whiteSpace=wrap;html=1;shadow=0;labelBackgroundColor=none;strokeColor=#b85450;strokeWidth=2;fillColor=#f8cecc;fontSize=16;fontColor=#000000;align=center;" vertex="1" parent="1">
          <mxGeometry x="120" y="220" width="240" height="40" as="geometry" />
        </mxCell>
      </root>
    </mxGraphModel>
  </diagram>
  <diagram name="015 - func" id="Hc7FWZlaONmkowfcdVoz">
    <mxGraphModel dx="990" dy="431" grid="1" gridSize="10" guides="1" tooltips="1" connect="1" arrows="1" fold="1" page="1" pageScale="1" pageWidth="1100" pageHeight="850" background="#ffffff" math="0" shadow="0">
      <root>
        <mxCell id="0" />
        <mxCell id="1" parent="0" />
        <mxCell id="6" value="" style="rounded=0;whiteSpace=wrap;html=1;shadow=0;labelBackgroundColor=none;strokeColor=#d6b656;strokeWidth=2;fillColor=#fff2cc;fontSize=50;fontColor=#000000;align=left;" vertex="1" parent="1">
          <mxGeometry x="514" y="370" width="40" height="60" as="geometry" />
        </mxCell>
        <mxCell id="5" value="" style="rounded=0;whiteSpace=wrap;html=1;shadow=0;labelBackgroundColor=none;strokeColor=#82b366;strokeWidth=2;fillColor=#d5e8d4;fontSize=50;fontColor=#000000;align=left;" vertex="1" parent="1">
          <mxGeometry x="396" y="370" width="118" height="60" as="geometry" />
        </mxCell>
        <mxCell id="4" value="" style="rounded=0;whiteSpace=wrap;html=1;shadow=0;labelBackgroundColor=none;strokeColor=#6c8ebf;strokeWidth=2;fillColor=#dae8fc;fontSize=50;fontColor=#000000;align=left;" vertex="1" parent="1">
          <mxGeometry x="286" y="370" width="110" height="60" as="geometry" />
        </mxCell>
        <mxCell id="2" value="func main() {&lt;div&gt;&lt;br&gt;&lt;/div&gt;&lt;div&gt;}&lt;/div&gt;" style="text;html=1;strokeColor=none;fillColor=none;align=left;verticalAlign=middle;whiteSpace=wrap;rounded=0;shadow=0;labelBackgroundColor=none;fontSize=50;fontColor=#000000;" vertex="1" parent="1">
          <mxGeometry x="294" y="400" width="440" height="110" as="geometry" />
        </mxCell>
        <mxCell id="7" value="" style="rounded=0;whiteSpace=wrap;html=1;shadow=0;labelBackgroundColor=none;strokeColor=#d79b00;strokeWidth=2;fillColor=#ffe6cc;fontSize=50;fontColor=#000000;align=left;" vertex="1" parent="1">
          <mxGeometry x="335" y="430" width="319" height="60" as="geometry" />
        </mxCell>
        <mxCell id="10" style="edgeStyle=orthogonalEdgeStyle;rounded=0;html=1;exitX=0.5;exitY=1;entryX=0.5;entryY=0;startArrow=none;startFill=0;endArrow=classic;endFill=1;jettySize=auto;orthogonalLoop=1;strokeColor=#000000;strokeWidth=3;fontSize=16;fontColor=#000000;" edge="1" parent="1" source="9" target="4">
          <mxGeometry relative="1" as="geometry" />
        </mxCell>
        <mxCell id="9" value="Tells go we&#39;re about to declare a function" style="text;html=1;strokeColor=none;fillColor=none;align=center;verticalAlign=middle;whiteSpace=wrap;rounded=0;shadow=0;labelBackgroundColor=none;fontSize=16;fontColor=#000000;" vertex="1" parent="1">
          <mxGeometry x="216" y="250" width="119" height="60" as="geometry" />
        </mxCell>
        <mxCell id="12" style="edgeStyle=orthogonalEdgeStyle;rounded=0;html=1;exitX=0.5;exitY=1;entryX=0.5;entryY=0;startArrow=none;startFill=0;endArrow=classic;endFill=1;jettySize=auto;orthogonalLoop=1;strokeColor=#000000;strokeWidth=3;fontSize=16;fontColor=#000000;" edge="1" parent="1" source="11" target="5">
          <mxGeometry relative="1" as="geometry" />
        </mxCell>
        <mxCell id="11" value="Sets the name of the function" style="text;html=1;strokeColor=none;fillColor=none;align=center;verticalAlign=middle;whiteSpace=wrap;rounded=0;shadow=0;labelBackgroundColor=none;fontSize=16;fontColor=#000000;" vertex="1" parent="1">
          <mxGeometry x="395" y="260" width="119" height="60" as="geometry" />
        </mxCell>
        <mxCell id="14" style="edgeStyle=orthogonalEdgeStyle;rounded=0;html=1;exitX=0.25;exitY=1;entryX=0.5;entryY=0;startArrow=none;startFill=0;endArrow=classic;endFill=1;jettySize=auto;orthogonalLoop=1;strokeColor=#000000;strokeWidth=3;fontSize=16;fontColor=#000000;" edge="1" parent="1" source="13" target="6">
          <mxGeometry relative="1" as="geometry" />
        </mxCell>
        <mxCell id="13" value="List of arguments to pass the function" style="text;html=1;strokeColor=none;fillColor=none;align=center;verticalAlign=middle;whiteSpace=wrap;rounded=0;shadow=0;labelBackgroundColor=none;fontSize=16;fontColor=#000000;" vertex="1" parent="1">
          <mxGeometry x="574" y="260" width="140" height="60" as="geometry" />
        </mxCell>
        <mxCell id="17" style="edgeStyle=orthogonalEdgeStyle;rounded=0;html=1;exitX=0;exitY=0.5;entryX=1;entryY=0.5;startArrow=none;startFill=0;endArrow=classic;endFill=1;jettySize=auto;orthogonalLoop=1;strokeColor=#000000;strokeWidth=3;fontSize=16;fontColor=#000000;" edge="1" parent="1" source="16" target="7">
          <mxGeometry relative="1" as="geometry" />
        </mxCell>
        <mxCell id="16" value="Function body. &amp;nbsp;Calling the function runs this code" style="text;html=1;strokeColor=none;fillColor=none;align=center;verticalAlign=middle;whiteSpace=wrap;rounded=0;shadow=0;labelBackgroundColor=none;fontSize=16;fontColor=#000000;" vertex="1" parent="1">
          <mxGeometry x="724" y="432" width="160" height="55" as="geometry" />
        </mxCell>
        <mxCell id="18" value="What&#39;s that &#39;&lt;i&gt;func&#39; &lt;/i&gt;thing?" style="rounded=0;whiteSpace=wrap;html=1;shadow=0;labelBackgroundColor=none;strokeColor=#9673a6;strokeWidth=2;fillColor=#e1d5e7;fontSize=12;fontColor=#000000;align=center;" vertex="1" parent="1">
          <mxGeometry x="110" y="180" width="150" height="30" as="geometry" />
        </mxCell>
      </root>
    </mxGraphModel>
  </diagram>
  <diagram name="017 - logging" id="-QqErOb3KBvZmcbrlzCm">
    <mxGraphModel dx="1238" dy="539" grid="1" gridSize="10" guides="1" tooltips="1" connect="1" arrows="1" fold="1" page="1" pageScale="1" pageWidth="1100" pageHeight="850" background="#ffffff" math="0" shadow="0">
      <root>
        <mxCell id="0" />
        <mxCell id="1" parent="0" />
        <mxCell id="2" value="Javascript" style="rounded=0;whiteSpace=wrap;html=1;shadow=0;labelBackgroundColor=none;strokeColor=#080808;strokeWidth=2;fillColor=#ffffff;fontSize=32;fontColor=#000000;align=center;" vertex="1" parent="1">
          <mxGeometry x="270" y="190" width="180" height="60" as="geometry" />
        </mxCell>
        <mxCell id="3" value="Language" style="text;html=1;strokeColor=none;fillColor=none;align=center;verticalAlign=middle;whiteSpace=wrap;rounded=0;shadow=0;labelBackgroundColor=none;fontSize=32;fontColor=#000000;" vertex="1" parent="1">
          <mxGeometry x="280" y="120" width="160" height="40" as="geometry" />
        </mxCell>
        <mxCell id="4" value="To Log Something" style="text;html=1;strokeColor=none;fillColor=none;align=center;verticalAlign=middle;whiteSpace=wrap;rounded=0;shadow=0;labelBackgroundColor=none;fontSize=32;fontColor=#000000;" vertex="1" parent="1">
          <mxGeometry x="510" y="120" width="290" height="40" as="geometry" />
        </mxCell>
        <mxCell id="5" value="console.log()" style="rounded=0;whiteSpace=wrap;html=1;shadow=0;labelBackgroundColor=none;strokeColor=#080808;strokeWidth=2;fillColor=#ffffff;fontSize=32;fontColor=#000000;align=center;" vertex="1" parent="1">
          <mxGeometry x="530" y="190" width="290" height="60" as="geometry" />
        </mxCell>
        <mxCell id="6" value="" style="endArrow=none;html=1;strokeColor=#000000;strokeWidth=3;fontSize=32;fontColor=#000000;" edge="1" parent="1">
          <mxGeometry width="50" height="50" relative="1" as="geometry">
            <mxPoint x="490" y="500" as="sourcePoint" />
            <mxPoint x="490" y="120" as="targetPoint" />
          </mxGeometry>
        </mxCell>
        <mxCell id="7" value="" style="endArrow=none;html=1;strokeColor=#000000;strokeWidth=3;fontSize=32;fontColor=#000000;" edge="1" parent="1">
          <mxGeometry width="50" height="50" relative="1" as="geometry">
            <mxPoint x="250" y="170" as="sourcePoint" />
            <mxPoint x="800" y="170" as="targetPoint" />
          </mxGeometry>
        </mxCell>
        <mxCell id="8" value="Java" style="rounded=0;whiteSpace=wrap;html=1;shadow=0;labelBackgroundColor=none;strokeColor=#080808;strokeWidth=2;fillColor=#ffffff;fontSize=32;fontColor=#000000;align=center;" vertex="1" parent="1">
          <mxGeometry x="270" y="270" width="180" height="60" as="geometry" />
        </mxCell>
        <mxCell id="9" value="System.out.println()" style="rounded=0;whiteSpace=wrap;html=1;shadow=0;labelBackgroundColor=none;strokeColor=#080808;strokeWidth=2;fillColor=#ffffff;fontSize=32;fontColor=#000000;align=center;" vertex="1" parent="1">
          <mxGeometry x="530" y="270" width="290" height="60" as="geometry" />
        </mxCell>
        <mxCell id="10" value="Ruby" style="rounded=0;whiteSpace=wrap;html=1;shadow=0;labelBackgroundColor=none;strokeColor=#080808;strokeWidth=2;fillColor=#ffffff;fontSize=32;fontColor=#000000;align=center;" vertex="1" parent="1">
          <mxGeometry x="270" y="350" width="180" height="60" as="geometry" />
        </mxCell>
        <mxCell id="11" value="puts" style="rounded=0;whiteSpace=wrap;html=1;shadow=0;labelBackgroundColor=none;strokeColor=#080808;strokeWidth=2;fillColor=#ffffff;fontSize=32;fontColor=#000000;align=center;" vertex="1" parent="1">
          <mxGeometry x="530" y="350" width="290" height="60" as="geometry" />
        </mxCell>
        <mxCell id="12" value="Go" style="rounded=0;whiteSpace=wrap;html=1;shadow=0;labelBackgroundColor=none;strokeColor=#080808;strokeWidth=2;fillColor=#ffffff;fontSize=32;fontColor=#000000;align=center;" vertex="1" parent="1">
          <mxGeometry x="270" y="425" width="180" height="60" as="geometry" />
        </mxCell>
        <mxCell id="13" value="fmt.Println()" style="rounded=0;whiteSpace=wrap;html=1;shadow=0;labelBackgroundColor=none;strokeColor=#080808;strokeWidth=2;fillColor=#ffffff;fontSize=32;fontColor=#000000;align=center;" vertex="1" parent="1">
          <mxGeometry x="530" y="425" width="290" height="60" as="geometry" />
        </mxCell>
      </root>
    </mxGraphModel>
  </diagram>
  <diagram name="018 - Review" id="0Hj9o8dA476J2SmYu2ZN">
    <mxGraphModel dx="1238" dy="539" grid="1" gridSize="10" guides="1" tooltips="1" connect="1" arrows="1" fold="1" page="1" pageScale="1" pageWidth="1100" pageHeight="850" background="#ffffff" math="0" shadow="0">
      <root>
        <mxCell id="0" />
        <mxCell id="1" parent="0" />
        <mxCell id="2" value="Two types of packages:" style="text;html=1;strokeColor=none;fillColor=none;align=center;verticalAlign=middle;whiteSpace=wrap;rounded=0;shadow=0;labelBackgroundColor=none;fontSize=22;fontColor=#000000;" vertex="1" parent="1">
          <mxGeometry x="306" y="172" width="235" height="30" as="geometry" />
        </mxCell>
        <mxCell id="3" value="Packages" style="rounded=0;whiteSpace=wrap;html=1;shadow=0;labelBackgroundColor=none;strokeColor=#080808;strokeWidth=2;fillColor=#ffffff;fontSize=32;fontColor=#000000;align=center;" vertex="1" parent="1">
          <mxGeometry x="271" y="40" width="150" height="60" as="geometry" />
        </mxCell>
        <mxCell id="4" value="executable" style="rounded=0;whiteSpace=wrap;html=1;shadow=0;labelBackgroundColor=none;strokeColor=#080808;strokeWidth=2;fillColor=#ffffff;fontSize=22;fontColor=#000000;align=center;" vertex="1" parent="1">
          <mxGeometry x="551" y="170" width="120" height="35" as="geometry" />
        </mxCell>
        <mxCell id="7" value="and" style="text;html=1;strokeColor=none;fillColor=none;align=center;verticalAlign=middle;whiteSpace=wrap;rounded=0;shadow=0;labelBackgroundColor=none;fontSize=22;fontColor=#000000;" vertex="1" parent="1">
          <mxGeometry x="677" y="172" width="50" height="30" as="geometry" />
        </mxCell>
        <mxCell id="8" value="dependency" style="rounded=0;whiteSpace=wrap;html=1;shadow=0;labelBackgroundColor=none;strokeColor=#080808;strokeWidth=2;fillColor=#ffffff;fontSize=22;fontColor=#000000;align=center;" vertex="1" parent="1">
          <mxGeometry x="731" y="170" width="129" height="35" as="geometry" />
        </mxCell>
        <mxCell id="9" value="executable" style="rounded=0;whiteSpace=wrap;html=1;shadow=0;labelBackgroundColor=none;strokeColor=#080808;strokeWidth=2;fillColor=#ffffff;fontSize=22;fontColor=#000000;align=center;" vertex="1" parent="1">
          <mxGeometry x="311" y="222" width="120" height="35" as="geometry" />
        </mxCell>
        <mxCell id="10" value="packages are used to create a file that we can run on our computer" style="text;html=1;strokeColor=none;fillColor=none;align=left;verticalAlign=middle;whiteSpace=wrap;rounded=0;shadow=0;labelBackgroundColor=none;fontSize=22;fontColor=#000000;" vertex="1" parent="1">
          <mxGeometry x="436" y="235" width="465" height="30" as="geometry" />
        </mxCell>
        <mxCell id="11" value="Used to organize related code" style="text;html=1;strokeColor=none;fillColor=none;align=left;verticalAlign=middle;whiteSpace=wrap;rounded=0;shadow=0;labelBackgroundColor=none;fontSize=22;fontColor=#000000;" vertex="1" parent="1">
          <mxGeometry x="311" y="120" width="510" height="30" as="geometry" />
        </mxCell>
        <mxCell id="12" value="executable" style="rounded=0;whiteSpace=wrap;html=1;shadow=0;labelBackgroundColor=none;strokeColor=#080808;strokeWidth=2;fillColor=#ffffff;fontSize=22;fontColor=#000000;align=center;" vertex="1" parent="1">
          <mxGeometry x="311" y="290" width="120" height="35" as="geometry" />
        </mxCell>
        <mxCell id="13" value="packages must define a function named &#39;main&#39;. This function is called automatically when the program is ran" style="text;html=1;strokeColor=none;fillColor=none;align=left;verticalAlign=middle;whiteSpace=wrap;rounded=0;shadow=0;labelBackgroundColor=none;fontSize=22;fontColor=#000000;" vertex="1" parent="1">
          <mxGeometry x="439" y="317" width="465" height="30" as="geometry" />
        </mxCell>
        <mxCell id="14" value="Imports" style="rounded=0;whiteSpace=wrap;html=1;shadow=0;labelBackgroundColor=none;strokeColor=#080808;strokeWidth=2;fillColor=#ffffff;fontSize=32;fontColor=#000000;align=center;" vertex="1" parent="1">
          <mxGeometry x="272" y="390" width="150" height="60" as="geometry" />
        </mxCell>
        <mxCell id="16" value="Package&#39;s don&#39;t get access to *any* other code by default" style="text;html=1;strokeColor=none;fillColor=none;align=left;verticalAlign=middle;whiteSpace=wrap;rounded=0;shadow=0;labelBackgroundColor=none;fontSize=22;fontColor=#000000;" vertex="1" parent="1">
          <mxGeometry x="307" y="470" width="510" height="30" as="geometry" />
        </mxCell>
        <mxCell id="18" value="Use the&amp;nbsp;" style="text;html=1;strokeColor=none;fillColor=none;align=left;verticalAlign=middle;whiteSpace=wrap;rounded=0;shadow=0;labelBackgroundColor=none;fontSize=22;fontColor=#000000;" vertex="1" parent="1">
          <mxGeometry x="307" y="525" width="90" height="30" as="geometry" />
        </mxCell>
        <mxCell id="19" value="import" style="rounded=0;whiteSpace=wrap;html=1;shadow=0;labelBackgroundColor=none;strokeColor=#080808;strokeWidth=2;fillColor=#ffffff;fontSize=22;fontColor=#000000;align=center;" vertex="1" parent="1">
          <mxGeometry x="392" y="525" width="90" height="35" as="geometry" />
        </mxCell>
        <mxCell id="20" value="to access code from one package in another package" style="text;html=1;strokeColor=none;fillColor=none;align=left;verticalAlign=middle;whiteSpace=wrap;rounded=0;shadow=0;labelBackgroundColor=none;fontSize=22;fontColor=#000000;" vertex="1" parent="1">
          <mxGeometry x="496" y="539" width="335" height="30" as="geometry" />
        </mxCell>
        <mxCell id="21" value="Logging" style="rounded=0;whiteSpace=wrap;html=1;shadow=0;labelBackgroundColor=none;strokeColor=#080808;strokeWidth=2;fillColor=#ffffff;fontSize=32;fontColor=#000000;align=center;" vertex="1" parent="1">
          <mxGeometry x="272" y="610" width="150" height="60" as="geometry" />
        </mxCell>
        <mxCell id="22" value="The" style="text;html=1;strokeColor=none;fillColor=none;align=left;verticalAlign=middle;whiteSpace=wrap;rounded=0;shadow=0;labelBackgroundColor=none;fontSize=22;fontColor=#000000;" vertex="1" parent="1">
          <mxGeometry x="315" y="700" width="90" height="30" as="geometry" />
        </mxCell>
        <mxCell id="23" value="fmt.Println" style="rounded=0;whiteSpace=wrap;html=1;shadow=0;labelBackgroundColor=none;strokeColor=#080808;strokeWidth=2;fillColor=#ffffff;fontSize=22;fontColor=#000000;align=center;" vertex="1" parent="1">
          <mxGeometry x="372" y="698" width="109" height="35" as="geometry" />
        </mxCell>
        <mxCell id="24" value="function can be used to print out information" style="text;html=1;strokeColor=none;fillColor=none;align=left;verticalAlign=middle;whiteSpace=wrap;rounded=0;shadow=0;labelBackgroundColor=none;fontSize=22;fontColor=#000000;" vertex="1" parent="1">
          <mxGeometry x="488" y="711" width="394" height="30" as="geometry" />
        </mxCell>
      </root>
    </mxGraphModel>
  </diagram>
  <diagram name="019 - link" id="twNjo2s-b_jtJ9XTuvxE">
    <mxGraphModel dx="990" dy="431" grid="1" gridSize="10" guides="1" tooltips="1" connect="1" arrows="1" fold="1" page="1" pageScale="1" pageWidth="1100" pageHeight="850" background="#ffffff" math="0" shadow="0">
      <root>
        <mxCell id="0" />
        <mxCell id="1" parent="0" />
        <mxCell id="2" value="https://golang.org/dl/" style="text;html=1;strokeColor=none;fillColor=none;align=center;verticalAlign=middle;whiteSpace=wrap;rounded=0;shadow=0;labelBackgroundColor=none;fontSize=50;fontColor=#000000;" vertex="1" parent="1">
          <mxGeometry x="530" y="210" width="40" height="20" as="geometry" />
        </mxCell>
        <mxCell id="3" value="Go runtime installer" style="text;html=1;strokeColor=none;fillColor=none;align=center;verticalAlign=middle;whiteSpace=wrap;rounded=0;shadow=0;labelBackgroundColor=none;fontSize=50;fontColor=#000000;" vertex="1" parent="1">
          <mxGeometry x="320" y="120" width="460" height="20" as="geometry" />
        </mxCell>
      </root>
    </mxGraphModel>
  </diagram>
  <diagram name="020 - vscode link" id="rNQJ_QbYAQFAUHJ_dJQ0">
    <mxGraphModel dx="1238" dy="539" grid="1" gridSize="10" guides="1" tooltips="1" connect="1" arrows="1" fold="1" page="1" pageScale="1" pageWidth="1100" pageHeight="850" background="#ffffff" math="0" shadow="0">
      <root>
        <mxCell id="0" />
        <mxCell id="1" parent="0" />
        <mxCell id="2" value="code.visualstudio.com/" style="text;html=1;strokeColor=none;fillColor=none;align=center;verticalAlign=middle;whiteSpace=wrap;rounded=0;shadow=0;labelBackgroundColor=none;fontSize=60;fontColor=#000000;" vertex="1" parent="1">
          <mxGeometry x="488" y="220" width="125" height="30" as="geometry" />
        </mxCell>
        <mxCell id="3" value="VSCode Installer" style="text;html=1;strokeColor=none;fillColor=none;align=center;verticalAlign=middle;whiteSpace=wrap;rounded=0;shadow=0;labelBackgroundColor=none;fontSize=60;fontColor=#000000;" vertex="1" parent="1">
          <mxGeometry x="296" y="100" width="509" height="20" as="geometry" />
        </mxCell>
      </root>
    </mxGraphModel>
  </diagram>
  <diagram name="020 - pkg link" id="ADCz_ob4DYLd4golQCnf">
    <mxGraphModel dx="1238" dy="539" grid="1" gridSize="10" guides="1" tooltips="1" connect="1" arrows="1" fold="1" page="1" pageScale="1" pageWidth="1100" pageHeight="850" background="#ffffff" math="0" shadow="0">
      <root>
        <mxCell id="0" />
        <mxCell id="1" parent="0" />
        <mxCell id="2" value="golang.org/pkg" style="text;html=1;strokeColor=none;fillColor=none;align=center;verticalAlign=middle;whiteSpace=wrap;rounded=0;shadow=0;labelBackgroundColor=none;fontSize=70;fontColor=#000000;" vertex="1" parent="1">
          <mxGeometry x="530" y="210" width="40" height="20" as="geometry" />
        </mxCell>
      </root>
    </mxGraphModel>
  </diagram>
</mxfile>
